<?xml version="1.0" standalone="no"?><!DOCTYPE svg PUBLIC "-//W3C//DTD SVG 1.1//EN" "http://www.w3.org/Graphics/SVG/1.1/DTD/svg11.dtd"><svg t="1631521522748" class="icon" viewBox="0 0 1024 1024" version="1.1" xmlns="http://www.w3.org/2000/svg" p-id="4523" xmlns:xlink="http://www.w3.org/1999/xlink" width="200" height="200"><defs><style type="text/css"></style></defs><path d="M982.836148 222.231555a26.622441 26.622441 0 0 0-0.51197-19.966831 25.086531 25.086531 0 0 0-14.115744-13.567205L535.374357 4.900284a58.510859 58.510859 0 0 0-46.808687 0L55.731593 188.770658a26.037332 26.037332 0 0 0 0 48.271458L488.56567 420.912489c14.993408 6.070502 31.815279 6.070502 46.808687 0l432.834077-183.870373a26.439594 26.439594 0 0 0 14.627714-14.810561z m-409.210318 275.183882l399.409749-166.755947a36.825272 36.825272 0 0 1 47.978904 18.94289c1.938172 4.424884 2.925543 9.21546 2.925543 14.079176v442.598076c0 14.006037-8.264659 26.695579-21.210186 32.619804l-399.409749 181.712785a36.861841 36.861841 0 0 1-48.564012-17.516688 35.3625 35.3625 0 0 1-3.364375-14.993408V530.400934c0-14.37173 8.776629-27.390396 22.234126-33.022066z m-123.311634 0L50.904447 330.65949A36.825272 36.825272 0 0 0 2.925543 349.60238a35.3625 35.3625 0 0 0-2.925543 14.079176v442.598076c0 14.006037 8.264659 26.695579 21.210186 32.619804l399.409749 181.712785a36.861841 36.861841 0 0 0 48.564013-17.516688 35.3625 35.3625 0 0 0 3.364374-14.993408V530.400934c0-14.37173-8.776629-27.390396-22.234126-33.022066z" p-id="4524"></path></svg>