<?xml version="1.0" standalone="no"?><!DOCTYPE svg PUBLIC "-//W3C//DTD SVG 1.1//EN" "http://www.w3.org/Graphics/SVG/1.1/DTD/svg11.dtd"><svg t="1631158770863" class="icon" viewBox="0 0 1024 1024" version="1.1" xmlns="http://www.w3.org/2000/svg" p-id="2255" xmlns:xlink="http://www.w3.org/1999/xlink" width="200" height="200"><defs><style type="text/css"></style></defs><path d="M218.10176 1000.00256c-2.00192 0-4.10112-0.1024-6.09792-0.30208C179.3024 996.59776 153.6 967.5008 153.6 933.4016V93.19936c0-35.59936 28.9024-64.50176 64.50176-64.50176 2.00192 0 4.10112 0.1024 6.09792 0.30208 27.49952 2.60096 50.0992 23.70048 56.4992 50.60096a299.27936 299.27936 0 0 1 9.4976-4.1984c35.2-14.80192 73.6-22.2976 114.0992-22.2976 58.39872 0 119.30112 15.80032 181.00224 46.8992 50.60096 25.6 99.90144 38.5024 146.40128 38.5024 85.89824 0 135.30112-44.8 137.40032-46.69952a25.42592 25.42592 0 0 1 17.19808-6.70208c13.9008 0 25.29792 11.40224 25.29792 25.40032v478.49984a25.24672 25.24672 0 0 1-19.3024 24.6016c-7.70048 1.89952-77.39904 18.2016-158.80192 18.2016-83.50208 0-149.20192-17.19808-195.2-51.00032-29.50144-21.69856-64.19968-32.70144-103.10144-32.70144-66.2016 0-128.1024 31.49824-152.6016 45.59872v341.69856c0.01024 35.69664-28.98944 64.59904-64.4864 64.59904z m0-921.30304c-7.90016 0-14.49984 6.59968-14.49984 14.49984v840.09984c0 8.4992 5.89824 15.8976 13.10208 16.59904 0.50176 0 0.9984 0.1024 1.39776 0.1024 7.90016 0 14.49984-6.59968 14.49984-14.49984V580.3008a24.97024 24.97024 0 0 1 11.10016-21.20192c3.69664-2.49856 91.5968-60.8 191.49824-60.8 49.80224 0 94.49984 14.30016 132.70016 42.39872 37.20192 27.40224 92.9024 41.29792 165.60128 41.29792 53.49888 0 102.2976-7.79776 128-12.8V156.9024c-2.69824 1.39776-5.49888 2.89792-8.40192 4.3008-37.20192 18.0992-78.10048 27.29984-121.40032 27.29984-54.4 0-111.20128-14.80192-168.89856-43.89888-54.59968-27.60192-107.89888-41.6-158.40256-41.6-81.50016 0-128.79872 36.89984-130.80064 38.4a25.61024 25.61024 0 0 1-15.69792 5.49888 25.56928 25.56928 0 0 1-19.3024-8.89856 25.2928 25.2928 0 0 1-6.00064-16.39936v-26.19904c0-8.4992-5.89824-15.8976-13.10208-16.59904-0.49664-0.00512-0.99328-0.10752-1.39264-0.10752z" fill="#5D5D5D" p-id="2256"></path></svg>