<?xml version="1.0" encoding="UTF-8"?>
<svg width="24px" height="24px" viewBox="0 0 24 24" version="1.1" xmlns="http://www.w3.org/2000/svg" xmlns:xlink="http://www.w3.org/1999/xlink">
    <title>Group 41</title>
    <g id="页面-1" stroke="none" stroke-width="1" fill="none" fill-rule="evenodd" opacity="0.65">
        <g id="弹窗" transform="translate(-391.000000, -843.000000)">
            <g id="Group-41" transform="translate(391.000000, 843.000000)">
                <rect id="Rectangle-35-Copy-10" x="0" y="0" width="24" height="24"></rect>
                <g id="star-o" transform="translate(1.476562, 1.500000)" fill="#000000" fill-rule="nonzero">
                    <path d="M10.5234375,1.68984375 C10.6476562,1.68984375 10.7742187,1.75546875 10.8375,1.8890625 L13.2867187,7.10859375 C13.3359375,7.2140625 13.434375,7.28671875 13.546875,7.303125 L19.0523437,8.14453125 C19.33125,8.18671875 19.44375,8.5265625 19.246875,8.728125 L15.24375,12.8320312 C15.1664062,12.9117187 15.13125,13.021875 15.15,13.1296875 L16.0921875,18.909375 C16.1296875,19.1320312 15.9515625,19.3125 15.75,19.3125 C15.69375,19.3125 15.6375,19.2984375 15.5835937,19.2679688 L10.6898437,16.5632812 C10.6382812,16.5351562 10.5796875,16.5210937 10.5234375,16.5210937 C10.4671875,16.5210937 10.4085937,16.5351562 10.3570312,16.5632812 L5.46328125,19.2679687 C5.409375,19.2984375 5.35078125,19.3125 5.296875,19.3125 C5.09765625,19.3125 4.91953125,19.134375 4.9546875,18.909375 L5.896875,13.1296875 C5.915625,13.021875 5.88046875,12.9117187 5.803125,12.8320312 L1.79765625,8.728125 C1.60078125,8.5265625 1.715625,8.18671875 1.9921875,8.14453125 L7.5,7.303125 C7.61484375,7.28671875 7.7109375,7.21171875 7.76015625,7.10859375 L10.209375,1.8890625 C10.2726562,1.75546875 10.3992187,1.68984375 10.5234375,1.68984375 L10.5234375,1.68984375 Z M10.5234375,0.00234375 C10.1507812,0.00234375 9.7875,0.103125 9.47109375,0.2953125 C9.1265625,0.50390625 8.8546875,0.80625 8.68359375,1.171875 L6.53671875,5.7421875 L1.7390625,6.47578125 C0.98203125,6.590625 0.3609375,7.11328125 0.1171875,7.83984375 C-0.1265625,8.56640625 0.05625,9.35625 0.590625,9.9046875 L4.12265625,13.5257812 L3.28828125,18.6351563 C3.1921875,19.2257813 3.35859375,19.8234375 3.7453125,20.278125 C4.134375,20.7351563 4.69921875,20.9976563 5.296875,20.9976563 C5.6390625,20.9976563 5.97890625,20.9085938 6.28125,20.7421875 L10.5234375,18.3984375 L14.765625,20.7445313 C15.0679687,20.9109375 15.4078125,21 15.75,21 C16.3476562,21 16.9125,20.7375 17.3015625,20.2804688 C17.6882812,19.8257812 17.8546875,19.228125 17.7585937,18.6375 L16.9242187,13.528125 L20.45625,9.90703125 C20.990625,9.35859375 21.1710937,8.56875 20.9296875,7.8421875 C20.6859375,7.115625 20.0648437,6.59296875 19.3078125,6.478125 L14.5101562,5.7421875 L12.3632812,1.171875 C12.1921875,0.80625 11.9203125,0.50390625 11.5757812,0.2953125 C11.259375,0.103125 10.8960937,0.00234375 10.5234375,0.00234375 L10.5234375,0.00234375 Z" id="Shape"></path>
                </g>
            </g>
        </g>
    </g>
</svg>