<?xml version="1.0" standalone="no"?><!DOCTYPE svg PUBLIC "-//W3C//DTD SVG 1.1//EN" "http://www.w3.org/Graphics/SVG/1.1/DTD/svg11.dtd"><svg t="1631178769433" class="icon" viewBox="0 0 1024 1024" version="1.1" xmlns="http://www.w3.org/2000/svg" p-id="2921" xmlns:xlink="http://www.w3.org/1999/xlink" width="200" height="200"><defs><style type="text/css"></style></defs><path d="M756.394667 104.277333a42.666667 42.666667 0 0 1 3.968 7.466667l116.48 282.922667a42.666667 42.666667 0 0 1-13.397334 50.090666c-68.394667 52.565333-152.405333 81.066667-252.032 85.418667-91.52 4.010667-169.813333 28.330667-234.965333 73.045333l76.885333 286.848a42.666667 42.666667 0 1 1-82.432 22.058667L172.117333 170.325333a42.666667 42.666667 0 1 1 82.432-22.101333l1.834667 6.613333c80.554667-17.578667 156.245333-20.48 226.986667-8.661333 71.253333 11.861333 142.549333-5.973333 213.845333-53.632a42.666667 42.666667 0 0 1 59.178667 11.733333z" p-id="2922"></path></svg>