<?xml version="1.0" encoding="UTF-8"?>
<svg width="26px" height="26px" viewBox="0 0 26 26" version="1.1" xmlns="http://www.w3.org/2000/svg" xmlns:xlink="http://www.w3.org/1999/xlink">
    <title>appstore-o</title>
    <g id="页面-1" stroke="none" stroke-width="1" fill="none" fill-rule="evenodd" opacity="0.65">
        <g id="弹窗" transform="translate(-199.000000, -842.000000)">
            <g id="Group-28" transform="translate(199.000000, 842.000000)">
                <g id="appstore-o" transform="translate(0.500000, 0.500000)">
                    <rect id="Rectangle-31" x="0.5" y="0.5" width="24" height="24"></rect>
                    <path d="M9.828125,3.6875 L9.828125,9.828125 L3.6875,9.828125 L3.6875,3.6875 L9.828125,3.6875 L9.828125,3.6875 Z M9.828125,2 L3.6875,2 C2.7546875,2 2,2.7546875 2,3.6875 L2,9.828125 C2,10.7609375 2.7546875,11.515625 3.6875,11.515625 L9.828125,11.515625 C10.7609375,11.515625 11.515625,10.7609375 11.515625,9.828125 L11.515625,3.6875 C11.515625,2.7546875 10.7609375,2 9.828125,2 Z M21.3125,3.6875 L21.3125,9.828125 L15.171875,9.828125 L15.171875,3.6875 L21.3125,3.6875 L21.3125,3.6875 Z M21.3125,2 L15.171875,2 C14.2390625,2 13.484375,2.7546875 13.484375,3.6875 L13.484375,9.828125 C13.484375,10.7609375 14.2390625,11.515625 15.171875,11.515625 L21.3125,11.515625 C22.2453125,11.515625 23,10.7609375 23,9.828125 L23,3.6875 C23,2.7546875 22.2453125,2 21.3125,2 Z M9.828125,15.171875 L9.828125,21.3125 L3.6875,21.3125 L3.6875,15.171875 L9.828125,15.171875 L9.828125,15.171875 Z M9.828125,13.484375 L3.6875,13.484375 C2.7546875,13.484375 2,14.2390625 2,15.171875 L2,21.3125 C2,22.2453125 2.7546875,23 3.6875,23 L9.828125,23 C10.7609375,23 11.515625,22.2453125 11.515625,21.3125 L11.515625,15.171875 C11.515625,14.2390625 10.7609375,13.484375 9.828125,13.484375 Z M21.3125,15.171875 L21.3125,21.3125 L15.171875,21.3125 L15.171875,15.171875 L21.3125,15.171875 L21.3125,15.171875 Z M21.3125,13.484375 L15.171875,13.484375 C14.2390625,13.484375 13.484375,14.2390625 13.484375,15.171875 L13.484375,21.3125 C13.484375,22.2453125 14.2390625,23 15.171875,23 L21.3125,23 C22.2453125,23 23,22.2453125 23,21.3125 L23,15.171875 C23,14.2390625 22.2453125,13.484375 21.3125,13.484375 Z" id="Shape" fill="#000000" fill-rule="nonzero"></path>
                </g>
            </g>
        </g>
    </g>
</svg>