<?xml version="1.0" encoding="UTF-8"?>
<svg width="22px" height="24px" viewBox="0 0 22 24" version="1.1" xmlns="http://www.w3.org/2000/svg" xmlns:xlink="http://www.w3.org/1999/xlink">
    <title>编组</title>
    <g id="页面-1" stroke="none" stroke-width="1" fill="none" fill-rule="evenodd">
        <g id="弹窗" transform="translate(-130.000000, -971.000000)">
            <g id="编组-4" transform="translate(123.000000, 971.000000)">
                <g id="编组" transform="translate(7.000000, 0.000000)">
                    <path d="M9.58517977,0.786649027 L9.58517977,0.786649027 L1.63156109,5.38017432 C0.917724514,5.78808093 0.480681712,6.55524047 0.480681712,7.37096031 L0.480681712,16.5580109 C0.480681712,17.3785868 0.922580545,18.1458397 1.63156109,18.5536529 L9.58517977,23.1472716 C10.2940669,23.5550848 11.1778646,23.5550848 11.8867518,23.1472716 L19.8453198,18.5536529 C20.554207,18.1458397 20.9961058,17.3785868 20.9961058,16.5580109 L20.9961058,7.37096031 C20.9961058,6.55524047 20.554207,5.78808093 19.8453198,5.38017432 L11.8867518,0.786649027 C11.1778646,0.378742412 10.2940669,0.378742412 9.58517977,0.786649027" id="Fill-1" fill="#FFFFFF"></path>
                    <path d="M13.2123829,9.81825058 L13.2123829,9.65314553 C13.2123829,9.31817276 13.1443984,8.99281868 13.0229977,8.70145681 C12.8968342,8.39552685 12.7073556,8.11873307 12.4791222,7.89049961 C12.2461261,7.66235953 11.9741883,7.47297432 11.6682584,7.34671751 C11.3720405,7.22531673 11.0516358,7.1573323 10.7165696,7.1573323 C10.3815035,7.1573323 10.0610054,7.22531673 9.76488093,7.34671751 C9.45895097,7.47297432 9.18701323,7.66235953 8.95392374,7.89049961 C8.72569027,8.11873307 8.53630506,8.39552685 8.41004825,8.70145681 C8.28864747,8.99281868 8.22066304,9.31817276 8.22066304,9.65314553 L8.22066304,9.81825058 L13.2123829,9.81825058 Z M7.11358132,16.2375502 C6.81745681,16.4560716 6.52609494,16.6357447 6.23958911,16.7765696 C5.40920778,17.1940949 4.67604047,17.2863595 4.23899767,16.9513868 C3.80195486,16.6211767 3.69521556,15.892772 3.87488872,14.9798381 C4.07398599,13.9602584 4.63233619,12.7511066 5.5063284,11.6051767 C5.99678755,10.9545619 6.535807,10.3960249 7.07968249,9.94936342 L7.07968249,15.7423284 C7.07968249,15.9121961 7.08939455,16.0773012 7.11358132,16.2375502 L7.11358132,16.2375502 Z M14.3097525,16.3006786 C14.5768342,16.4899704 14.843916,16.6502195 15.1012856,16.7765696 C15.9315735,17.1940949 16.6599782,17.2863595 17.0969276,16.9513868 C17.5339704,16.6211767 17.6456591,15.892772 17.465986,14.9798381 C17.2668887,13.9602584 16.7036825,12.7511066 15.8344529,11.6051767 C15.3682739,10.9884607 14.8633401,10.4592467 14.3534568,10.0270599 L14.3534568,15.7423284 C14.3534568,15.9316202 14.3388887,16.1161494 14.3097525,16.3006786 L14.3097525,16.3006786 Z" id="Fill-3" fill="#FFFFFF"></path>
                    <path d="M13.0958288,6.3367284 L13.7416809,4.46239377 L13.751393,4.46239377 C14.0378054,4.46239377 14.2708949,4.22939767 14.2708949,3.93794241 C14.2708949,3.65152996 14.0378054,3.41844047 13.751393,3.41844047 C13.4600311,3.41844047 13.2269416,3.65152996 13.2269416,3.93794241 C13.2269416,4.09819144 13.2997821,4.23910973 13.4114708,4.33613696 C12.7073463,5.03054942 11.7216654,5.30734319 11.2215875,4.25358444 C11.0661946,3.92823035 10.9399377,3.56897743 10.8962335,3.43786459 C11.0903813,3.36016809 11.2312996,3.17078288 11.2312996,2.94740545 C11.2312996,2.660993 11.0030661,2.43275953 10.7165603,2.4279035 C10.4300545,2.43275953 10.201821,2.660993 10.201821,2.94740545 C10.201821,3.17078288 10.3426459,3.36016809 10.5368872,3.43786459 C10.4931829,3.56897743 10.3669261,3.92823035 10.2115331,4.25358444 C9.71145525,5.30734319 8.72568093,5.03054942 8.02164981,4.33613696 C8.13333852,4.23910973 8.20617899,4.09819144 8.20617899,3.93794241 C8.20617899,3.65152996 7.97308949,3.41844047 7.68172763,3.41844047 C7.39522179,3.41844047 7.1621323,3.65152996 7.1621323,3.93794241 C7.1621323,4.22939767 7.39522179,4.46239377 7.68172763,4.46239377 L7.69143969,4.46239377 L8.33719844,6.3367284 C8.99276265,5.81227704 9.81819455,5.49663502 10.7165603,5.49663502 C11.6148327,5.49663502 12.4402646,5.81227704 13.0958288,6.3367284" id="Fill-5" fill="#231815"></path>
                    <path d="M8.27897276,9.80374786 L13.2124202,9.80374786 L13.2124202,9.65321089 C13.2124202,9.31814475 13.1444358,8.99279066 13.023035,8.70142879 C12.8967782,8.39549883 12.707393,8.11879844 12.4791595,7.89056498 C12.24607,7.66233152 11.9741323,7.4729463 11.6682957,7.34668949 C11.3720778,7.22528872 11.0515798,7.15739767 10.716607,7.15739767 C10.3815409,7.15739767 10.0610428,7.22528872 9.7648249,7.34668949 C9.45889494,7.4729463 9.18705058,7.66233152 8.95396109,7.89056498 C8.72572763,8.11879844 8.53634241,8.39549883 8.4100856,8.70142879 C8.28868482,8.99279066 8.22070039,9.31814475 8.22070039,9.65321089 L8.22070039,9.80374786 L8.27897276,9.80374786 Z M8.27897276,12.3578335 L13.2124202,12.3578335 L13.2124202,10.9399658 L8.22070039,10.9399658 L8.22070039,12.3578335 L8.27897276,12.3578335 Z M13.1395798,15.9413977 L8.22555642,15.9413977 L8.23526848,16.0092887 C8.26440467,16.2958879 8.3469572,16.5677323 8.46350195,16.8153899 C8.58975875,17.0727595 8.75486381,17.3057556 8.95396109,17.5049463 C9.18210117,17.7330864 9.45889494,17.9224716 9.7648249,18.0487284 C10.0610428,18.1701292 10.3815409,18.2380202 10.716607,18.2380202 C11.0515798,18.2380202 11.3720778,18.1701292 11.6682957,18.0487284 C11.9741323,17.9224716 12.24607,17.7330864 12.4791595,17.5049463 C12.6782568,17.3057556 12.8433619,17.0727595 12.9647626,16.8153899 C13.0861634,16.5677323 13.168716,16.2958879 13.1978521,16.0092887 L13.2027082,15.9413977 L13.1395798,15.9413977 Z M8.27897276,14.8050864 L13.2124202,14.8050864 L13.2124202,13.4940514 L8.22070039,13.4940514 L8.22070039,14.8050864 L8.27897276,14.8050864 Z M14.3534942,10.0271253 L14.3534942,15.7423004 C14.3534942,15.9315922 14.3389261,16.1162148 14.3097899,16.3006506 C14.5768716,16.4900358 14.8438599,16.6501914 15.1012296,16.7765416 C15.9316109,17.1941603 16.6600156,17.2863315 17.096965,16.9513588 C17.5340078,16.6211486 17.6456965,15.892744 17.4660233,14.9799035 C17.2669261,13.9602304 16.7036265,12.751172 15.8344903,11.6051486 C15.3683113,10.9885261 14.8633774,10.4593121 14.3534942,10.0271253 L14.3534942,10.0271253 Z M7.11361868,16.2376156 C7.08933852,16.0773665 7.07962646,15.9121681 7.07962646,15.7423004 L7.07962646,9.94942879 C6.53575097,10.3960903 5.9968249,10.9545339 5.50636576,11.6051486 C4.63237354,12.751172 4.07392996,13.9602304 3.87483268,14.9799035 C3.69525292,15.892744 3.80199222,16.6211486 4.23903502,16.9513588 C4.67598444,17.2863315 5.40924514,17.1941603 6.23962646,16.7765416 C6.52603891,16.6357167 6.81740078,16.4560436 7.11361868,16.2376156 L7.11361868,16.2376156 Z M13.6396576,7.49722646 C13.8144747,7.73517198 13.9650117,7.99254163 14.0767004,8.26447938 C14.1446848,8.42463502 14.1981012,8.58974008 14.2418054,8.75970117 C15.0478132,9.30843268 15.8636265,10.0853977 16.5823191,11.032137 C17.5485759,12.3044171 18.1651984,13.6494444 18.3934319,14.8002304 C18.6410895,16.0627051 18.4177121,17.1310319 17.6651206,17.6990942 C16.9172918,18.2672498 15.8296342,18.199172 14.6788482,17.6213977 C14.4651829,17.5098023 14.2466615,17.3884016 14.0281401,17.2426272 C13.8436109,17.6457712 13.5910973,18.0050241 13.2852607,18.3109541 C12.9501946,18.6460202 12.547144,18.917958 12.1053385,19.1023938 C11.6780078,19.2820669 11.2069728,19.3791875 10.716607,19.3791875 C10.2261479,19.3791875 9.75511284,19.2820669 9.3277821,19.1023938 C8.88597665,18.917958 8.48292607,18.6460202 8.14785992,18.3109541 C7.82745525,17.990456 7.56513619,17.6165416 7.38070039,17.1941603 C7.13789883,17.359172 6.89509728,17.4999969 6.65715175,17.6213977 C5.50636576,18.199172 4.41870817,18.2672498 3.67087938,17.6990942 C2.92314397,17.1310319 2.69976654,16.0627051 2.94742412,14.8002304 C3.17080156,13.6494444 3.79228016,12.3044171 4.75368093,11.032137 C5.51122179,10.0416934 6.37064591,9.23559222 7.2107393,8.68200467 C7.24958755,8.54117977 7.29814786,8.40044825 7.35642023,8.26447938 C7.46810895,7.99254163 7.6136965,7.73517198 7.788607,7.49722646 L7.79831907,7.49722646 C8.46350195,6.60866615 9.52687938,6.03079844 10.716607,6.03079844 C11.9062412,6.03079844 12.9696187,6.60866615 13.6348949,7.49722646 L13.6396576,7.49722646 Z" id="Fill-9" fill="#231815"></path>
                    <path d="M1.39358755,4.96258366 L9.34720623,0.369058366 C9.779393,0.121400778 10.2601401,0 10.7360311,0 C11.2166848,0 11.6974319,0.121400778 12.1247626,0.369058366 L20.0832374,4.96258366 C20.5104747,5.21024125 20.8602023,5.56463813 21.1029105,5.98225681 C21.340856,6.39987549 21.4768249,6.88062257 21.4768249,7.37098833 L21.4768249,16.5580389 C21.4768249,17.0533541 21.340856,17.5340078 21.1029105,17.9516265 C20.8602023,18.3643891 20.5104747,18.7188794 20.0832374,18.9712996 L12.1295253,23.5598755 C11.6974319,23.8076265 11.2166848,23.9337899 10.7360311,23.9337899 C10.2601401,23.9337899 9.779393,23.8076265 9.34720623,23.5598755 L1.39358755,18.9712996 C0.961400778,18.7188794 0.611766537,18.3643891 0.373914397,17.9516265 C0.13111284,17.5340078 0,17.0533541 0,16.5580389 L0,7.37098833 C0,6.88062257 0.13111284,6.39987549 0.373914397,5.98225681 C0.616715953,5.56463813 0.961400778,5.21024125 1.38873152,4.96258366 L1.39358755,4.96258366 Z M9.82309728,1.1993463 L1.8694786,5.7928716 C1.58782879,5.95797665 1.35959533,6.19106615 1.20420233,6.45814786 C1.04395331,6.7300856 0.961400778,7.04563424 0.961400778,7.37098833 L0.961400778,16.5580389 C0.961400778,16.8832996 1.04395331,17.1989416 1.20420233,17.4708794 C1.35959533,17.7427237 1.58782879,17.9759066 1.8694786,18.1410117 L9.82309728,22.7296809 C10.1047471,22.8946926 10.4203891,22.9723891 10.7360311,22.9723891 C11.0564358,22.9723891 11.3672218,22.8946926 11.6488716,22.7296809 L19.6074397,18.1410117 C19.8841401,17.9759066 20.1123735,17.7427237 20.2726226,17.4708794 C20.4280156,17.1989416 20.5154241,16.8832996 20.5154241,16.5580389 L20.5154241,7.37098833 C20.5154241,7.04563424 20.4280156,6.7300856 20.2726226,6.45814786 C20.1123735,6.19106615 19.8841401,5.95797665 19.6024903,5.7928716 L11.6488716,1.1993463 C11.3720778,1.03909728 11.0564358,0.961400778 10.7360311,0.961400778 C10.4203891,0.961400778 10.1047471,1.03909728 9.82309728,1.1993463 L9.82309728,1.1993463 Z" id="Fill-11" fill="#231815"></path>
                </g>
            </g>
        </g>
    </g>
</svg>