<?xml version="1.0" encoding="UTF-8"?>
<svg width="24px" height="24px" viewBox="0 0 24 24" version="1.1" xmlns="http://www.w3.org/2000/svg" xmlns:xlink="http://www.w3.org/1999/xlink">
    <title>Group 52</title>
    <g id="页面-1" stroke="none" stroke-width="1" fill="none" fill-rule="evenodd" opacity="0.65">
        <g id="弹窗" transform="translate(-125.000000, -843.000000)">
            <g id="Group-52" transform="translate(125.000000, 843.000000)">
                <rect id="Rectangle-35-Copy-21" x="0" y="0" width="24" height="24"></rect>
                <g id="linechart" transform="translate(1.476562, 1.500000)" fill="#000000" fill-rule="nonzero">
                    <path d="M20.15625,21.0234375 L0.84375,21.0234375 C0.37734375,21.0234375 0,20.6460938 0,20.1796875 L0,0.84375 C0,0.37734375 0.37734375,0 0.84375,0 C1.31015625,0 1.6875,0.37734375 1.6875,0.84375 L1.6875,19.3359375 L20.15625,19.3359375 C20.6226562,19.3359375 21,19.7132813 21,20.1796875 C21,20.6460938 20.6226562,21.0234375 20.15625,21.0234375 Z M7.546875,15.9375 C7.265625,15.9375 6.9984375,15.796875 6.84140625,15.5554688 L3.16171875,9.69609375 C2.90625,9.30703125 3.0140625,8.784375 3.40546875,8.52890625 C3.79453125,8.2734375 4.3171875,8.38125 4.57265625,8.77265625 L7.20703125,13.0359375 L8.27578125,8.8828125 C8.33671875,8.64375 8.503125,8.4421875 8.72578125,8.334375 L12.9914062,6.271875 C13.3804687,6.084375 13.8492187,6.2203125 14.0765625,6.58828125 L16.2210937,10.0640625 L19.3546875,0.60234375 C19.5023437,0.159375 19.978125,-0.0796875 20.4210937,0.065625 C20.8640625,0.21328125 21.103125,0.6890625 20.9578125,1.13203125 L17.2546875,12.3117188 C17.1515625,12.6234375 16.8773437,12.8460938 16.5515625,12.8835938 C16.2257812,12.9210938 15.9070312,12.7664063 15.7359375,12.4875 L13.040625,8.1234375 L9.81328125,9.684375 L8.36484375,15.3046875 C8.28046875,15.628125 8.015625,15.871875 7.68515625,15.9257813 C7.63828125,15.9328125 7.59140625,15.9375 7.546875,15.9375 Z" id="Shape"></path>
                </g>
            </g>
        </g>
    </g>
</svg>