<?xml version="1.0" encoding="UTF-8"?>
<svg width="24px" height="24px" viewBox="0 0 24 24" version="1.1" xmlns="http://www.w3.org/2000/svg" xmlns:xlink="http://www.w3.org/1999/xlink">
    <title>Group 16</title>
    <g id="页面-1" stroke="none" stroke-width="1" fill="none" fill-rule="evenodd" opacity="0.65">
        <g id="弹窗" transform="translate(-521.000000, -842.000000)">
            <g id="Group-16" transform="translate(521.000000, 842.000000)">
                <g id="pushpin-o" transform="translate(1.523438, 1.523438)" fill="#000000" fill-rule="nonzero">
                    <path d="M5.60859375,2.4046875 C5.6296875,2.56171875 5.6390625,2.7234375 5.634375,2.88515625 L5.60859375,3.73359375 L6.271875,4.2609375 L11.296875,8.2453125 L12.0070313,8.8078125 L12.8695312,8.5265625 C13.5492188,8.30390625 14.259375,8.19140625 14.9789063,8.19140625 C15.7382812,8.19140625 16.4859375,8.31796875 17.2007813,8.5640625 C17.6203125,8.709375 18.0234375,8.896875 18.4054688,9.11953125 L14.4375,13.1039062 L13.4320313,14.1140625 L13.134375,14.4140625 L13.134375,14.4140625 L9.16171875,18.403125 C8.7515625,17.7117188 8.465625,16.9453125 8.32265625,16.1507813 C8.12578125,15.0492187 8.20546875,13.9054687 8.55234375,12.84375 L8.83359375,11.98125 L8.27109375,11.2710938 L4.28671875,6.24609375 L3.759375,5.5828125 L2.9109375,5.60859375 C2.8828125,5.60859375 2.85234375,5.6109375 2.82421875,5.6109375 C2.690625,5.6109375 2.55703125,5.6015625 2.42578125,5.5828125 L5.60859375,2.4046875 L5.60859375,2.4046875 Z M5.95078125,0.00234375 C5.7515625,0.00234375 5.55,0.07734375 5.3953125,0.23203125 L0.253125,5.3625 C-0.0984375,5.7140625 -0.0421875,6.3 0.375,6.571875 C1.11796875,7.0546875 1.97109375,7.29609375 2.82421875,7.29609375 C2.87109375,7.29609375 2.91796875,7.29609375 2.96484375,7.29375 L6.94921875,12.31875 C6.07734375,14.9882812 6.5671875,18.0023438 8.41875,20.278125 C8.58046875,20.475 8.8125,20.5757813 9.04453125,20.5757813 C9.25078125,20.5757813 9.4546875,20.4984375 9.6140625,20.3390625 L14.4421875,15.4921875 L19.6734375,20.7234375 C19.8234375,20.8734375 20.0179688,20.9460938 20.2125,20.9460938 C20.4070313,20.9460938 20.6039063,20.8710938 20.7515625,20.7234375 C21.0492188,20.4257813 21.0492188,19.940625 20.7515625,19.6429688 L15.5179688,14.4117187 L20.3460938,9.56484375 C20.6835938,9.22734375 20.6507813,8.671875 20.2804688,8.36953125 C18.7382813,7.125 16.8585938,6.5015625 14.98125,6.5015625 C14.090625,6.5015625 13.2023438,6.6421875 12.346875,6.92109375 L7.321875,2.93671875 C7.35,2.0390625 7.1109375,1.13671875 6.6046875,0.35625 C6.45234375,0.12421875 6.20390625,0.00234375 5.95078125,0.00234375 L5.95078125,0.00234375 Z" id="Shape"></path>
                </g>
                <rect id="Rectangle-19" x="0" y="0" width="24" height="24"></rect>
            </g>
        </g>
    </g>
</svg>