<?xml version="1.0" encoding="UTF-8"?>
<svg width="22px" height="22px" viewBox="0 0 22 22" version="1.1" xmlns="http://www.w3.org/2000/svg" xmlns:xlink="http://www.w3.org/1999/xlink">
    <title>pay-circle-o</title>
    <g id="页面-1" stroke="none" stroke-width="1" fill="none" fill-rule="evenodd" opacity="0.65">
        <g id="弹窗" transform="translate(-456.000000, -844.000000)" fill="#000000" fill-rule="nonzero">
            <g id="Group-28" transform="translate(455.000000, 844.000000)">
                <g id="pay-circle-o" transform="translate(1.000000, 0.000000)">
                    <path d="M11,0 C4.92636719,0 0,4.92636719 0,11 C0,17.0736328 4.92636719,22 11,22 C17.0736328,22 22,17.0736328 22,11 C22,4.92636719 17.0736328,0 11,0 Z M17.6837891,17.6837891 C16.8158203,18.5517578 15.8039063,19.2349609 14.678125,19.7097656 C13.5136719,20.2039062 12.2761719,20.453125 11,20.453125 C9.72382813,20.453125 8.48632812,20.2039062 7.321875,19.7097656 C6.19609375,19.2328125 5.18417969,18.5517578 4.31621094,17.6837891 C3.44824219,16.8158203 2.76503906,15.8039063 2.29023438,14.678125 C1.79609375,13.5136719 1.546875,12.2761719 1.546875,11 C1.546875,9.72382813 1.79609375,8.48632812 2.29023437,7.321875 C2.7671875,6.19609375 3.44824219,5.18417969 4.31621094,4.31621094 C5.18417969,3.44824219 6.19609375,2.76503906 7.321875,2.29023438 C8.48632812,1.79609375 9.72382813,1.546875 11,1.546875 C12.2761719,1.546875 13.5136719,1.79609375 14.678125,2.29023437 C15.8039063,2.7671875 16.8158203,3.44824219 17.6837891,4.31621094 C18.5517578,5.18417969 19.2349609,6.19609375 19.7097656,7.321875 C20.2039062,8.48632812 20.453125,9.72382813 20.453125,11 C20.453125,12.2761719 20.2039062,13.5136719 19.7097656,14.678125 C19.2349609,15.8039063 18.5539063,16.8158203 17.6837891,17.6837891 Z" id="Shape"></path>
                    <path d="M14.6598396,8.76427313 L11.1708331,8.76427313 C11.1854577,8.76427313 11.2000822,8.75800546 11.2147068,8.74338088 L13.6841713,6.28227325 C13.9787521,5.98769246 13.9808414,5.5155275 13.6862606,5.22303593 C13.3916798,4.92845514 12.9174256,4.93054437 12.6228448,5.22512516 L10.6924004,7.15765873 L8.75150997,5.21885748 C8.45692917,4.92427669 7.97849654,4.92845514 7.68391574,5.22303593 C7.38933495,5.51761673 7.38724572,5.99604936 7.68182652,6.29063016 L10.151291,8.75800546 C10.1659156,8.77263003 10.1805402,8.79352229 10.1951648,8.79352229 L6.71660434,8.79352229 C6.32382995,8.79352229 6,9.12153069 6,9.51430508 L6,9.58324952 C6,9.97602391 6.32382995,10.2894077 6.71660434,10.2894077 L9.94236849,10.2894077 L9.94236849,11.626512 L7.38306727,11.626512 C6.99029288,11.626512 6.68317673,11.9670558 6.68317673,12.3598302 L6.68317673,12.4433992 C6.68317673,12.8361736 6.99029288,13.1307544 7.38306727,13.1307544 L9.94236849,13.1307544 L9.94236849,16.2478788 C9.94236849,16.6636347 10.2787338,17 10.6944897,17 C11.1102455,17 11.4466108,16.6636347 11.4466108,16.2478788 L11.4466108,13.1307544 L13.9912875,13.1307544 C14.3840619,13.1307544 14.7266949,12.8361736 14.7266949,12.4433992 L14.7266949,12.3598302 C14.7266949,11.9670558 14.3840619,11.626512 13.9912875,11.626512 L11.4466108,11.626512 L11.4466108,10.2894077 L14.6598396,10.2894077 C15.052614,10.2894077 15.395247,9.99273772 15.395247,9.5978741 L15.395247,9.51430508 C15.395247,9.12153069 15.052614,8.76427313 14.6598396,8.76427313 Z" id="Shape"></path>
                </g>
            </g>
        </g>
    </g>
</svg>