<?xml version="1.0" standalone="no"?><!DOCTYPE svg PUBLIC "-//W3C//DTD SVG 1.1//EN" "http://www.w3.org/Graphics/SVG/1.1/DTD/svg11.dtd"><svg t="1628749305549" class="icon" viewBox="0 0 1024 1024" version="1.1" xmlns="http://www.w3.org/2000/svg" p-id="16873" xmlns:xlink="http://www.w3.org/1999/xlink" width="200" height="200"><defs><style type="text/css"></style></defs><path d="M968.145455 214.109091C930.909091 146.618182 877.381818 93.090909 809.890909 55.854545 742.4 18.618182 663.272727 0 542.254545 0h-62.836363c-118.690909 0-197.818182 18.618182-265.309091 55.854545C146.618182 93.090909 93.090909 146.618182 55.854545 214.109091 18.618182 281.6 0 360.727273 0 481.745455v62.836363c0 118.690909 18.618182 197.818182 55.854545 265.309091C93.090909 877.381818 146.618182 930.909091 214.109091 968.145455c67.490909 37.236364 146.618182 55.854545 265.309091 55.854545h62.836363c118.690909 0 197.818182-18.618182 265.309091-55.854545 67.490909-37.236364 121.018182-90.763636 158.254546-158.254546 37.236364-67.490909 55.854545-146.618182 55.854545-265.309091v-62.836363c2.327273-121.018182-16.290909-200.145455-53.527272-267.636364zM509.672727 777.309091c-116.363636 0-272.290909-25.6-265.309091-200.145455 2.327273-88.436364 81.454545-172.218182 172.218182-209.454545-37.236364-34.909091-37.236364-69.818182-37.236363-69.818182 0-69.818182 132.654545-65.163636 132.654545-65.163636s132.654545-6.981818 132.654545 65.163636c0 0 0 32.581818-37.236363 69.818182 90.763636 37.236364 169.890909 123.345455 172.218182 211.781818 2.327273 174.545455-153.6 197.818182-269.963637 197.818182z" p-id="16874"></path><path d="M591.127273 563.2c11.636364 0 20.945455-9.309091 20.945454-20.945455s-9.309091-20.945455-20.945454-20.945454h-44.218182l41.890909-39.563636c9.309091-6.981818 9.309091-20.945455 0-27.927273-6.981818-9.309091-20.945455-9.309091-27.927273 0l-53.527272 48.872727-53.527273-48.872727c-9.309091-6.981818-20.945455-6.981818-27.927273 0-6.981818 9.309091-6.981818 20.945455 0 27.927273l41.890909 39.563636h-44.218182c-11.636364 0-20.945455 9.309091-20.945454 20.945454s9.309091 20.945455 20.945454 20.945455H488.727273v37.236364h-62.836364c-11.636364 0-20.945455 9.309091-20.945454 20.945454s9.309091 20.945455 20.945454 20.945455H488.727273v51.2c0 11.636364 9.309091 20.945455 20.945454 20.945454s20.945455-9.309091 20.945455-20.945454v-51.2h62.836363c11.636364 0 20.945455-9.309091 20.945455-20.945455s-9.309091-20.945455-20.945455-20.945454h-62.836363v-37.236364h60.509091z" p-id="16875"></path></svg>