<?xml version="1.0" encoding="UTF-8"?>
<svg width="24px" height="24px" viewBox="0 0 24 24" version="1.1" xmlns="http://www.w3.org/2000/svg" xmlns:xlink="http://www.w3.org/1999/xlink">
    <title>后台系统</title>
    <g id="页面-1" stroke="none" stroke-width="1" fill="none" fill-rule="evenodd" opacity="0.65">
        <g id="弹窗" transform="translate(-45.000000, -844.000000)" fill="#000000" fill-rule="nonzero">
            <g id="后台系统" transform="translate(45.000000, 844.000000)">
                <rect id="矩形" opacity="0" x="0" y="0" width="24" height="24"></rect>
                <path d="M21.3307406,10.9438703 C21.1085563,14.4834201 18.9169612,17.4884078 15.8393787,18.8765097 C15.6870069,20.9407648 13.9296547,22.5150503 11.8611326,22.4403343 C9.79261044,22.3656184 8.15341745,20.6686481 8.15037145,18.5987793 C8.14934048,16.8188661 9.36863018,15.2703088 11.0991102,14.8537384 C12.8295903,14.437168 14.6200244,15.2612084 15.4291077,16.8466031 C17.4917611,15.757667 18.9150922,13.7543091 19.2645366,11.4481847 C19.9817684,11.4324735 20.6869224,11.2603611 21.3307406,10.9438703 L21.3307406,10.9438703 Z M12.0001,16.3989347 C10.9080134,16.3991222 9.98140271,17.2004567 9.82369249,18.2810957 C9.66598227,19.3617347 10.3249262,20.3944676 11.3714088,20.7067613 C12.4178914,21.019055 13.5350445,20.5163489 13.995359,19.5260138 L14.0157076,19.4809169 L14.0597044,19.3747745 C14.0951224,19.2804545 14.1239725,19.1837972 14.1460484,19.0854949 L14.1377989,19.1206924 C14.1460484,19.0854949 14.1542978,19.0502974 14.1603473,19.0145499 L14.1460484,19.0854949 C14.1557755,19.0426781 14.164212,18.9995783 14.1713466,18.956254 L14.1603473,19.0145499 C14.1680468,18.9755027 14.1746463,18.9353555 14.1801459,18.8952083 L14.1713466,18.9557041 C14.1768462,18.9177568 14.1823458,18.8792595 14.1867455,18.8402122 L14.1801459,18.8952083 C14.193345,18.7984152 14.1999445,18.6994222 14.1999445,18.5987793 L14.1960948,18.4667886 C14.1935597,18.4226866 14.1897083,18.3786701 14.1845456,18.3347979 L14.193895,18.4315911 C14.1906693,18.3900444 14.1862678,18.3485974 14.1806959,18.3072999 L14.1845456,18.3347979 C14.1721302,18.2321604 14.1524657,18.1305303 14.1256998,18.0306694 L14.1344992,18.0636671 C14.1242969,18.0230177 14.1129263,17.9826705 14.1004016,17.9426757 L14.1256998,18.0306694 C14.1151037,17.9905626 14.1033664,17.9507659 14.0905023,17.9113279 L14.1004016,17.9421257 C14.087806,17.9019558 14.0740512,17.8621587 14.0591545,17.8227841 L14.0905023,17.9113279 C14.0768888,17.8698278 14.0620332,17.8287456 14.0459554,17.7881366 L14.0591545,17.8227841 C14.0221892,17.7249893 13.9782632,17.6299693 13.9277138,17.5384542 L13.9464125,17.5731018 C13.9282603,17.5385016 13.9091882,17.5043918 13.8892165,17.470809 L13.9277138,17.5384542 C13.5411161,16.8354576 12.8023855,16.3987529 12.0001,16.3989347 Z M4.85060531,2.64990644 C6.24904898,2.65053847 7.53716881,3.40947614 8.21545087,4.63241462 C8.89373293,5.8553531 8.85548974,7.34993551 8.11555144,8.53658474 C7.37561313,9.72323396 6.05036516,10.4153011 4.65371921,10.3444127 L4.65371921,10.3493623 C4.65371921,12.7724911 5.82733626,14.9217392 7.63725837,16.2597946 C7.30212178,16.8868782 7.10521704,17.5784827 7.05979918,18.2880513 C4.41228628,16.6370679 2.65076077,13.6986256 2.65076077,10.3493623 C2.65076077,10.1227783 2.65901019,9.89839419 2.67440911,9.67565993 C1.2821384,8.7219415 0.673333597,6.97262844 1.17265597,5.36058819 C1.67197834,3.74854794 3.16300449,2.64964827 4.85060531,2.64990644 Z M12.0001,1.00001149 C14.1432985,1.00001149 16.118209,1.72102213 17.6949475,2.93423638 C19.4747035,2.20765184 21.5176752,2.90533717 22.4812263,4.56877507 C23.4447773,6.23221297 23.0335459,8.35150229 21.5177924,9.53385068 C20.002039,10.7161991 17.8463943,10.5991759 16.4675433,9.25968858 C15.0886924,7.92020125 14.9093007,5.76884886 16.047264,4.21949555 C14.847579,3.42406289 13.4395273,3.00101599 12.0001,3.00353148 C10.8990778,3.00353148 9.8552516,3.24551439 8.91756788,3.67998368 C8.50887234,3.09026595 7.97711528,2.59622349 7.35897803,2.23193601 C8.7715623,1.42224046 10.3719125,0.997452641 12.0001,1.00001149 Z M4.84349021,8.76501372 L4.93148394,8.77205311 L4.87868767,8.76501372 L4.84349021,8.76501372 Z M4.76316149,8.76391372 L4.82953605,8.77095328 L4.92814983,8.77095328 L4.76316149,8.76391372 Z M4.73676336,8.76281379 L4.86050461,8.76985335 L4.9017517,8.76985335 L4.73676336,8.76281379 Z M4.6888411,8.75676431 L4.76275588,8.7638037 L4.73459798,8.7638037 L4.6888411,8.75676431 Z M4.65270866,8.75533435 L4.69494567,8.75533435 L4.65270866,8.75533435 Z M3.96146257,8.55069385 L4.06353525,8.59645056 L3.97202183,8.55421354 L3.96146257,8.55069385 Z M3.8942229,8.49877746 L4.03691545,8.60437 L4.05921124,8.62196881 L4.03691545,8.60437 L4.01239023,8.58677119 L3.8942229,8.49877746 L3.8942229,8.49877746 Z M3.51804948,8.25016068 L3.64211046,8.37346776 L3.68303782,8.41514902 L3.57432459,8.30747241 L3.51804948,8.25016068 Z M3.55036655,8.2902322 L3.59964312,8.32894952 L3.59260356,8.32542966 L3.55036655,8.2902322 Z M17.482257,5.21479463 L17.3731446,5.36966358 L17.4576186,5.25351179 L17.482257,5.21479463 L17.482257,5.21479463 Z M18.1013688,4.65872882 L17.9363805,4.78895973 L18.0188746,4.72208435 L18.1013688,4.65872882 L18.1013688,4.65872882 Z M18.7889096,4.41108137 L18.6903566,4.43219988 L18.7466725,4.42164063 L18.7889096,4.41108137 L18.7889096,4.41108137 Z M18.8310367,4.40343692 L18.7712008,4.41399617 L18.8345564,4.40343692 L18.8310367,4.40343692 Z M18.9703074,4.34288618 L18.8821518,4.38864289 L18.8053191,4.43439976 L18.8870044,4.38512319 L18.9703074,4.34288618 Z M4.82011683,8.76710346 L4.81307728,8.76710346 L4.7145243,8.76006407 L4.82011683,8.76710346 Z M4.6518287,8.75439936 L4.6307102,8.75087967 L4.74334229,8.76143892 L4.6518287,8.75439936 L4.6518287,8.75439936 Z M4.08652969,8.62059384 L4.06632704,8.6029952 L3.98551644,8.53260012 L4.15050477,8.67339011 L4.08652969,8.62059384 Z M3.70221081,8.40308427 L3.75500708,8.43828173 L3.84652067,8.491078 L3.70221081,8.40308427 L3.70221081,8.40308427 Z M3.75398281,8.43916171 L3.75068294,8.43564184 L3.58899447,8.32300991 L3.75398281,8.43916171 Z M4.83931047,8.76523365 L4.74427719,8.76523365 L4.83931047,8.76523365 Z M18.2260794,4.60202794 L18.2823953,4.57738957 L18.3105534,4.56683032 L18.2260794,4.60202794 Z M18.6397601,4.44666389 L18.6749577,4.43610463 L18.7031156,4.42906508 L18.6397601,4.44666389 Z M18.8087081,4.40882659 L18.8227872,4.40530673 L18.8016687,4.40882659 L18.8087081,4.40882659 Z M18.6023834,4.36798505 L18.5974338,4.36963493 L18.6403307,4.3586357 C18.6011853,4.36800823 18.5623065,4.37846149 18.523739,4.38998349 L18.5710356,4.37678442 L18.5132897,4.39328325 L18.4703927,4.40648232 L18.4181464,4.42463104 C18.3457141,4.4500187 18.2746706,4.47920715 18.2053115,4.51207486 L18.2229102,4.50382544 L18.2009118,4.51372474 L18.1904625,4.51867439 L18.1871627,4.52032428 L18.1789133,4.52527393 L18.1596647,4.53462327 L18.1195175,4.55552181 L18.1173177,4.55607176 L18.0672712,4.58356982 L18.1140179,4.55827159 L18.0672712,4.58411978 L18.0386732,4.60006866 L18.0166748,4.61326772 L18.0210745,4.61106786 L18.0161248,4.61381768 L17.9666283,4.64461551 L17.9517794,4.65396483 L17.9275811,4.67046366 L17.9138321,4.67926306 L17.8692852,4.71061084 L17.8351876,4.7353591 L17.8252883,4.74305853 C17.7554433,4.7958548 17.688898,4.85250079 17.6256524,4.91299652 L17.6086036,4.92949536 L17.5866052,4.95149382 L17.5580072,4.98064174 L17.5492078,4.99054104 L17.5387586,5.00099032 L17.5129104,5.02958829 L17.4931118,5.05158673 L17.4892621,5.05598643 L17.4782628,5.06918549 L17.4430653,5.11153251 L17.4232667,5.13518083 L17.4089677,5.15442948 L17.4073179,5.15662931 L17.3726703,5.2022761 L17.362771,5.21657507 L17.2995255,5.30896854 C16.7552859,6.15447482 16.8536141,7.2613844 17.5383705,7.99771736 C18.223127,8.73405033 19.3199963,8.91236169 20.202731,8.43084621 C21.0854656,7.94933072 21.5293518,6.93056563 21.2809568,5.95620556 C21.0325617,4.98184549 20.1551183,4.29992892 19.1495947,4.29978988 L19.1292462,4.30033983 L19.1275963,4.29978988 L19.0264034,4.30308965 L18.9972555,4.30473953 C18.951477,4.30789887 18.905808,4.3124841 18.8603152,4.31848855 L18.8053191,4.32618801 L18.7646219,4.3333375 L18.7976196,4.3278379 L18.764072,4.3333375 L18.7514229,4.33553734 L18.7442734,4.33718722 L18.7415236,4.3377372 L18.7387738,4.33828715 L18.7376738,4.33828715 L18.6964268,4.34653657 L18.720625,4.34158692 L18.6953268,4.34708652 L18.6705786,4.35203617 L18.6397808,4.35918568 L18.6617792,4.35368605 L18.6342811,4.35973563 L18.6232819,4.3630354 L18.6111828,4.36578521 L18.6062331,4.36688512 L18.6067831,4.36688512 L18.6018334,4.36798505 L18.6023834,4.36798505 Z M4.72961385,8.6956292 L4.81650771,8.69837901 L4.85060531,8.69947892 C5.8624926,8.69947892 6.74384353,8.00914175 6.98629789,7.02673055 C7.22875225,6.04431935 6.76976608,5.02322603 5.87408105,4.55241376 C4.97839601,4.08160148 3.8770646,4.2825218 3.20533102,5.03928457 C2.53359744,5.79604733 2.46474327,6.91343669 3.03848337,7.74694624 L3.114378,7.85143885 C3.13637644,7.87893692 3.1583749,7.90643495 3.18147327,7.93283312 L3.18312315,7.934483 L3.22162042,7.97847987 L3.19082262,7.94273242 L3.23976914,7.99772852 C3.25901779,8.01862705 3.27936634,8.03952556 3.30026487,8.05987414 L3.30576448,8.06592369 L3.31841359,8.07802285 L3.33271259,8.09177187 L3.36681016,8.12366961 L3.37945928,8.13521879 L3.39375827,8.14786791 L3.38000923,8.13521879 L3.41355688,8.1649167 L3.40695734,8.15941709 L3.41355688,8.1649167 L3.42345618,8.17371609 L3.44930433,8.19516457 L3.46140349,8.20506388 L3.50155065,8.23696161 L3.48560177,8.22486248 L3.50155065,8.23751156 L3.50815018,8.24246122 L3.51804948,8.25016068 L3.50925011,8.24301119 L3.54224778,8.2683094 L3.61594255,8.32000573 L3.61649253,8.32055571 L3.61814242,8.32165562 L3.63739104,8.33485469 L3.67863812,8.36125282 L3.69348707,8.37060217 L3.65333992,8.34475399 L3.72428491,8.38930084 L3.76773183,8.41459907 L3.80347931,8.43494762 L3.82382786,8.44539687 L3.84967604,8.45914592 L3.89477285,8.48114435 L3.92337084,8.49489337 L3.9294204,8.49764319 L3.93656991,8.50094296 L3.98606641,8.52294139 L4.00531504,8.53119081 L4.01191457,8.53339067 L4.0185141,8.53614046 L4.0383127,8.54438988 L4.09110897,8.56473846 L4.06031117,8.55318927 C4.14115545,8.58453706 4.22419957,8.61093519 4.30944356,8.63238367 L4.43868442,8.66098164 C4.47718169,8.66813113 4.51567898,8.67473066 4.55417625,8.67968031 L4.53767742,8.67748048 L4.59157362,8.68408001 L4.60532264,8.6857299 L4.60752248,8.6857299 L4.61192217,8.68627985 L4.62127152,8.68792973 L4.65041944,8.69012959 L4.62402131,8.68737978 L4.65756896,8.6912295 L4.66856816,8.69177948 L4.7048656,8.69452927 L4.70596553,8.69452927 L4.72301431,8.6956292 L4.73676336,8.69617915 L4.72961385,8.6956292 L4.72961385,8.6956292 Z" id="形状"></path>
            </g>
        </g>
    </g>
</svg>