<?xml version="1.0" encoding="UTF-8"?>
<svg width="24px" height="24px" viewBox="0 0 24 24" version="1.1" xmlns="http://www.w3.org/2000/svg" xmlns:xlink="http://www.w3.org/1999/xlink">
    <title>igw-l-jurisdiction</title>
    <g id="页面-1" stroke="none" stroke-width="1" fill="none" fill-rule="evenodd" opacity="0.65">
        <g id="弹窗" transform="translate(-655.000000, -840.000000)" fill="#000000" fill-rule="nonzero">
            <g id="igw-l-jurisdiction" transform="translate(655.000000, 840.000000)">
                <rect id="矩形" opacity="0" x="0" y="0" width="24" height="24"></rect>
                <path d="M12.4224844,0.825820312 L21.524625,2.51139844 C21.880125,2.57723437 22.1380547,2.88733594 22.1380547,3.24885937 L22.125,11.625 C22.125,16.6249922 18.75,20.5000078 12,23.25 C5.25,20.7499922 1.875,16.875 1.875,11.625 L1.875,3.249 C1.875,2.88740625 2.13302344,2.57728125 2.48859375,2.51151562 L11.6036016,0.825726562 C11.8742779,0.775664708 12.1518429,0.775696484 12.4225078,0.825820312 L12.4224844,0.825820312 Z M11.8914844,2.29809375 L11.8764141,2.30071875 L3.375,3.873 L3.375,11.625 C3.375,13.8673125 4.07496094,15.7821562 5.49417188,17.4336094 L5.53739063,17.4835781 C6.95313281,19.1090625 9.08934375,20.4981094 11.9619141,21.6298125 L11.9746641,21.6348047 L11.9962266,21.6256172 C14.8540547,20.3969766 16.9904531,18.9645234 18.4168828,17.3482734 L18.4626563,17.2960781 C19.8995391,15.6463125 20.6107266,13.7974453 20.6248125,11.6867109 L20.6250469,11.6226562 L20.6371172,3.87253125 L12.1493906,2.30074219 C12.0642198,2.28497306 11.9769611,2.284077 11.8914844,2.29809375 Z M12,6 C13.6568437,6 15,7.34315625 15,9 C15,10.3978594 14.0439375,11.5724297 12.7500469,11.9054766 L12.75,12.984375 L13.5,12.984375 C13.9142109,12.984375 14.25,13.3201641 14.25,13.734375 C14.25,14.1485859 13.9142109,14.484375 13.5,14.484375 L12.75,14.484375 L12.75,16.875 C12.75,17.2892109 12.4142109,17.625 12,17.625 C11.5857891,17.625 11.25,17.2892109 11.25,16.875 L11.2499766,11.9054766 C9.9560625,11.5724297 9,10.3978594 9,9 C9,7.34315625 10.3431562,6 12,6 Z M12,7.5 C11.1715781,7.5 10.5,8.17157812 10.5,9 C10.5,9.82842188 11.1715781,10.5 12,10.5 C12.8284219,10.5 13.5,9.82842188 13.5,9 C13.5,8.17157812 12.8284219,7.5 12,7.5 Z" id="形状"></path>
            </g>
        </g>
    </g>
</svg>