<?xml version="1.0" encoding="UTF-8"?>
<svg width="32px" height="32px" viewBox="0 0 32 32" version="1.1" xmlns="http://www.w3.org/2000/svg" xmlns:xlink="http://www.w3.org/1999/xlink">
    <title>logo</title>
    <g id="页面-1" stroke="none" stroke-width="1" fill="none" fill-rule="evenodd">
        <g id="弹窗" transform="translate(-275.000000, -945.000000)">
            <g id="logo" transform="translate(275.000000, 945.000000)">
                <rect id="矩形" x="0" y="0" width="32" height="32"></rect>
                <path d="M14.9088858,1.03417117 L14.9088858,1.03417117 L4.45263037,7.07306686 C3.51418237,7.60932286 2.93962237,8.61787209 2.93962237,9.69026132 L2.93962237,21.7680527 C2.93962237,22.8468259 3.52056637,23.8554979 4.45263037,24.3916312 L14.9088858,30.4306496 C15.840827,30.9667829 17.002715,30.9667829 17.9346562,30.4306496 L28.3974184,24.3916312 C29.3293596,23.8554979 29.9103036,22.8468259 29.9103036,21.7680527 L29.9103036,9.69026132 C29.9103036,8.61787209 29.3293596,7.60932286 28.3974184,7.07306686 L17.9346562,1.03417117 C17.002715,0.497915169 15.840827,0.497915169 14.9088858,1.03417117" id="Fill-1" fill="#F4C820"></path>
                <path d="M19.6774023,12.9076009 L19.6774023,12.6905449 C19.6774023,12.2501717 19.5880263,11.8224437 19.4284263,11.4394037 C19.262565,11.0372117 19.0134663,10.6733237 18.7134183,10.3732757 C18.407109,10.0733504 18.049605,9.82437443 17.647413,9.65839043 C17.257989,9.49879043 16.8367678,9.40941443 16.3962718,9.40941443 C15.9557758,9.40941443 15.5344318,9.49879043 15.1451306,9.65839043 C14.7429386,9.82437443 14.3854346,10.0733504 14.0790026,10.3732757 C13.7789546,10.6733237 13.5299786,11.0372117 13.3639946,11.4394037 C13.2043946,11.8224437 13.1150186,12.2501717 13.1150186,12.6905449 L13.1150186,12.9076009 L19.6774023,12.9076009 Z M11.6595894,21.3467578 C11.2702881,21.6340378 10.8872481,21.8702458 10.5105921,22.0553818 C9.41892812,22.604283 8.45506689,22.725579 7.88050689,22.2852058 C7.30594689,21.8510938 7.16562166,20.8934938 7.40182966,19.6933018 C7.66357366,18.3529074 8.39761089,16.7632914 9.54660812,15.2567901 C10.1913921,14.4014569 10.9000161,13.6671741 11.6150241,13.0799689 L11.6150241,20.6957126 C11.6150241,20.9190298 11.6277921,21.1360858 11.6595894,21.3467578 L11.6595894,21.3467578 Z M21.1200635,21.4297498 C21.4711835,21.678603 21.8223035,21.889275 22.1606555,22.0553818 C23.2521967,22.604283 24.2097967,22.725579 24.784234,22.2852058 C25.358794,21.8510938 25.505626,20.8934938 25.269418,19.6933018 C25.007674,18.3529074 24.2672527,16.7632914 23.1245167,15.2567901 C22.5116527,14.4460221 21.8478395,13.7502889 21.1775195,13.1821129 L21.1775195,20.6957126 C21.1775195,20.9445658 21.1583675,21.1871578 21.1200635,21.4297498 L21.1200635,21.4297498 Z" id="Fill-3" fill="#FFFFFF"></path>
                <path d="M19.524174,8.33060437 L20.373246,5.86650314 L20.386014,5.86650314 C20.7625472,5.86650314 21.0689792,5.56019391 21.0689792,5.17703114 C21.0689792,4.80049791 20.7625472,4.49406591 20.386014,4.49406591 C20.002974,4.49406591 19.696542,4.80049791 19.696542,5.17703114 C19.696542,5.38770314 19.792302,5.57296191 19.939134,5.70051914 C19.013454,6.61343114 17.7176248,6.97731914 17.0601955,5.59199114 C16.8559075,5.16426314 16.6899235,4.69196991 16.6324675,4.51960191 C16.8877048,4.41745791 17.0729635,4.16848191 17.0729635,3.87481791 C17.0729635,3.49828468 16.7729155,3.19823668 16.3962595,3.19185268 C16.0196035,3.19823668 15.7195555,3.49828468 15.7195555,3.87481791 C15.7195555,4.16848191 15.9046915,4.41745791 16.1600515,4.51960191 C16.1025955,4.69196991 15.9366115,5.16426314 15.7323235,5.59199114 C15.0748943,6.97731914 13.7789423,6.61343114 12.8533851,5.70051914 C13.0002171,5.57296191 13.0959771,5.38770314 13.0959771,5.17703114 C13.0959771,4.80049791 12.7895451,4.49406591 12.4065051,4.49406591 C12.0298491,4.49406591 11.7234171,4.80049791 11.7234171,5.17703114 C11.7234171,5.56019391 12.0298491,5.86650314 12.4065051,5.86650314 L12.4192731,5.86650314 L13.2682223,8.33060437 C14.1300623,7.64113237 15.2152195,7.22617237 16.3962595,7.22617237 C17.5771768,7.22617237 18.662334,7.64113237 19.524174,8.33060437" id="Fill-7" fill="#231815"></path>
                <path d="M13.1916757,16.2462242 L19.6774514,16.2462242 L19.6774514,14.382219 L13.1150677,14.382219 L13.1150677,16.2462242 L13.1916757,16.2462242 Z M19.5816914,20.9573706 L13.1214517,20.9573706 L13.1342197,21.0467466 C13.1725237,21.4234026 13.2810517,21.7807839 13.4342677,22.1063679 C13.6002517,22.4447199 13.8173077,22.7510291 14.0790517,23.0128959 C14.3789769,23.3129439 14.7428649,23.5619199 15.1450569,23.7277811 C15.5344809,23.8873811 15.9558249,23.9767571 16.3963209,23.9767571 C16.8366942,23.9767571 17.2580382,23.8873811 17.6474622,23.7277811 C18.0495314,23.5619199 18.4070354,23.3129439 18.7134674,23.0128959 C18.9752114,22.7510291 19.1922674,22.4447199 19.3518674,22.1063679 C19.5114674,21.7807839 19.6199954,21.4234026 19.6582994,21.0467466 L19.6646834,20.9573706 L19.5816914,20.9573706 Z M13.1916757,19.4635146 L19.6774514,19.4635146 L19.6774514,17.7399574 L13.1150677,17.7399574 L13.1150677,19.4635146 L13.1916757,19.4635146 Z" id="Fill-9" fill="#F4C820"></path>
                <path d="M13.1916757,12.8885348 L19.6774514,12.8885348 L19.6774514,12.6906308 C19.6774514,12.2501348 19.5880754,11.8224068 19.4284754,11.4393668 C19.2624914,11.0371748 19.0135154,10.6734096 18.7134674,10.3733616 C18.4070354,10.0733136 18.0495314,9.8243376 17.6474622,9.6583536 C17.2580382,9.4987536 16.8366942,9.40950037 16.3963209,9.40950037 C15.9558249,9.40950037 15.5344809,9.4987536 15.1450569,9.6583536 C14.7428649,9.8243376 14.3854837,10.0733136 14.0790517,10.3733616 C13.7790037,10.6734096 13.5300277,11.0371748 13.3640437,11.4393668 C13.2044437,11.8224068 13.1150677,12.2501348 13.1150677,12.6906308 L13.1150677,12.8885348 L13.1916757,12.8885348 Z M13.1916757,16.2462733 L19.6774514,16.2462733 L19.6774514,14.3822681 L13.1150677,14.3822681 L13.1150677,16.2462733 L13.1916757,16.2462733 Z M19.5816914,20.9574198 L13.1214517,20.9574198 L13.1342197,21.046673 C13.1725237,21.4234518 13.2810517,21.780833 13.4342677,22.106417 C13.6002517,22.444769 13.8173077,22.7510782 14.0790517,23.012945 C14.3789769,23.3128702 14.7428649,23.5618462 15.1450569,23.7278302 C15.5344809,23.8874302 15.9558249,23.9766834 16.3963209,23.9766834 C16.8366942,23.9766834 17.2580382,23.8874302 17.6474622,23.7278302 C18.0495314,23.5618462 18.4070354,23.3128702 18.7134674,23.012945 C18.9752114,22.7510782 19.1922674,22.444769 19.3518674,22.106417 C19.5114674,21.780833 19.6199954,21.4234518 19.6582994,21.046673 L19.6646834,20.9574198 L19.5816914,20.9574198 Z M13.1916757,19.4635638 L19.6774514,19.4635638 L19.6774514,17.7400065 L13.1150677,17.7400065 L13.1150677,19.4635638 L13.1916757,19.4635638 Z M21.1775686,13.1821988 L21.1775686,20.6956758 C21.1775686,20.944529 21.1584166,21.1872438 21.1201126,21.429713 C21.4712326,21.678689 21.8222298,21.8892382 22.1605818,22.055345 C23.2522458,22.604369 24.2098458,22.7255422 24.7842831,22.285169 C25.3588431,21.851057 25.5056751,20.893457 25.2694671,19.6933878 C25.0077231,18.3528705 24.2671791,16.7633773 23.1245658,15.2567533 C22.5117018,14.4461081 21.8478886,13.7503748 21.1775686,13.1821988 L21.1775686,13.1821988 Z M11.6596385,21.3468438 C11.6277185,21.1361718 11.6149505,20.918993 11.6149505,20.6956758 L11.6149505,13.0800548 C10.8999425,13.6672601 10.1914412,14.4014201 9.54665723,15.2567533 C8.39766,16.7633773 7.6635,18.3528705 7.401756,19.6933878 C7.16567077,20.893457 7.305996,21.851057 7.880556,22.285169 C8.45499323,22.7255422 9.41897723,22.604369 10.5106412,22.055345 C10.8871745,21.870209 11.2702145,21.634001 11.6596385,21.3468438 L11.6596385,21.3468438 Z M20.2391206,9.8562576 C20.4689446,10.1690736 20.6668486,10.5074256 20.8136806,10.8649296 C20.9030566,11.0754788 20.9732806,11.2925348 21.0307366,11.5159748 C22.0903578,12.2373668 23.1628698,13.2588068 24.1077018,14.5034413 C25.3779951,16.1760493 26.1886403,17.9442945 26.4886883,19.4571798 C26.8142723,21.116897 26.5206083,22.521377 25.5312111,23.2681822 C24.5480751,24.0151102 23.1181818,23.9256114 21.6052966,23.1660382 C21.3244006,23.019329 21.0371206,22.859729 20.7498406,22.6680862 C20.5072486,23.198081 20.1752806,23.6703742 19.7732114,24.0725662 C19.3327154,24.5130622 18.8028434,24.8705662 18.2220222,25.1130354 C17.6602302,25.3492434 17.0409822,25.4769234 16.3963209,25.4769234 C15.7515369,25.4769234 15.1322889,25.3492434 14.5704969,25.1130354 C13.9896757,24.8705662 13.4598037,24.5130622 13.0193077,24.0725662 C12.5980865,23.6512222 12.2532277,23.1596542 12.0107585,22.604369 C11.6915585,22.8213022 11.3723585,23.0064382 11.0595425,23.1660382 C9.54665723,23.9256114 8.116764,24.0151102 7.133628,23.2681822 C6.15061477,22.521377 5.85695077,21.116897 6.18253477,19.4571798 C6.47619877,17.9442945 7.293228,16.1760493 8.55713723,14.5034413 C9.55304123,13.2013508 10.6828865,12.1416068 11.7873185,11.4138308 C11.8383905,11.2286948 11.9022305,11.0436816 11.9788385,10.8649296 C12.1256705,10.5074256 12.3170677,10.1690736 12.5470145,9.8562576 L12.5597825,9.8562576 C13.4342677,8.68810837 14.8322409,7.92841237 16.3963209,7.92841237 C17.9602782,7.92841237 19.3582514,8.68810837 20.2328594,9.8562576 L20.2391206,9.8562576 Z" id="Fill-11" fill="#231815"></path>
                <path d="M4.13977754,6.52407969 L14.5960329,0.485184 C15.1642089,0.1596 15.7962249,0 16.4218569,0 C17.0537502,0 17.6857662,0.1596 18.2475582,0.485184 L28.7101975,6.52407969 C29.2718668,6.84966369 29.7316375,7.31557292 30.0507148,7.86459692 C30.3635308,8.41362092 30.5422828,9.04563692 30.5422828,9.69029815 L30.5422828,21.7680895 C30.5422828,22.4192575 30.3635308,23.0511508 30.0507148,23.6001748 C29.7316375,24.1428148 29.2718668,24.6088468 28.7101975,24.940692 L18.2538194,30.9730809 C17.6857662,31.2987877 17.0537502,31.4646489 16.4218569,31.4646489 C15.7962249,31.4646489 15.1642089,31.2987877 14.5960329,30.9730809 L4.13977754,24.940692 C3.57160154,24.6088468 3.11195354,24.1428148 2.79926031,23.6001748 C2.48006031,23.0511508 2.30769231,22.4192575 2.30769231,21.7680895 L2.30769231,9.69029815 C2.30769231,9.04563692 2.48006031,8.41362092 2.79926031,7.86459692 C3.11846031,7.31557292 3.57160154,6.84966369 4.13339354,6.52407969 L4.13977754,6.52407969 Z M15.2216649,1.57672523 L4.76540954,7.61562092 C4.39513754,7.83267692 4.09508954,8.13910892 3.89080154,8.49022892 C3.68012954,8.84773292 3.57160154,9.26257015 3.57160154,9.69029815 L3.57160154,21.7680895 C3.57160154,22.1956948 3.68012954,22.6106548 3.89080154,22.9681588 C4.09508954,23.32554 4.39513754,23.6320948 4.76540954,23.8491508 L15.2216649,29.8816625 C15.5919369,30.0985957 16.0068969,30.2007397 16.4218569,30.2007397 C16.8430782,30.2007397 17.2516542,30.0985957 17.6219262,29.8816625 L28.0846883,23.8491508 C28.4484535,23.6320948 28.7485015,23.32554 28.9591735,22.9681588 C29.1634615,22.6106548 29.2783735,22.1956948 29.2783735,21.7680895 L29.2783735,9.69029815 C29.2783735,9.26257015 29.1634615,8.84773292 28.9591735,8.49022892 C28.7485015,8.13910892 28.4484535,7.83267692 28.0781815,7.61562092 L17.6219262,1.57672523 C17.2580382,1.36605323 16.8430782,1.26390923 16.4218569,1.26390923 C16.0068969,1.26390923 15.5919369,1.36605323 15.2216649,1.57672523 L15.2216649,1.57672523 Z" id="Fill-15" fill="#231815"></path>
            </g>
        </g>
    </g>
</svg>