<?xml version="1.0" encoding="UTF-8"?>
<svg width="24px" height="24px" viewBox="0 0 24 24" version="1.1" xmlns="http://www.w3.org/2000/svg" xmlns:xlink="http://www.w3.org/1999/xlink">
    <title>mail</title>
    <g id="页面-1" stroke="none" stroke-width="1" fill="none" fill-rule="evenodd" opacity="0.65">
        <g id="弹窗" transform="translate(-726.000000, -840.000000)">
            <g id="Group-174" transform="translate(725.000000, 840.000000)">
                <g id="mail" transform="translate(1.000000, 0.000000)">
                    <rect id="Rectangle-48-Copy-9" x="0" y="0" width="24" height="24"></rect>
                    <path d="M20.3570313,3.02109375 L2.70625,3.02109375 C1.7734375,3.02109375 1.01875,3.77578125 1.01875,4.70859375 L1.01875,19.378125 C1.01875,20.3109375 1.7734375,21.065625 2.70625,21.065625 L20.3570313,21.065625 C21.2898438,21.065625 22.0445313,20.3109375 22.0445313,19.378125 L22.0445313,4.70859375 C22.0445313,3.778125 21.2875,3.02109375 20.3570313,3.02109375 Z M18.5476563,4.70859375 L12.2640625,9.9609375 L12.2265625,9.99140625 L12.19375,10.0265625 C12.034375,10.1953125 11.81875,10.2867188 11.5867188,10.2890625 C11.584375,10.2890625 11.584375,10.2890625 11.5820313,10.2890625 C11.3523438,10.2890625 11.1367188,10.1976563 10.9773438,10.0335938 L10.9445313,10.0007813 L4.52734375,4.70859375 L18.5476563,4.70859375 Z M20.3570313,19.378125 L2.70625,19.378125 C2.70625,19.378125 2.70625,19.378125 2.70625,19.378125 L2.70625,5.3953125 L9.803125,11.2429688 C10.28125,11.7164063 10.909375,11.9765625 11.584375,11.9765625 C11.5890625,11.9765625 11.5914063,11.9765625 11.5960938,11.9765625 C12.2734375,11.9742188 12.90625,11.709375 13.3820313,11.2289063 L20.359375,5.39765625 L20.359375,19.378125 C20.3570313,19.378125 20.3570313,19.378125 20.3570313,19.378125 Z" id="Shape" fill="#000000" fill-rule="nonzero"></path>
                </g>
            </g>
        </g>
    </g>
</svg>