<?xml version="1.0" encoding="UTF-8"?>
<svg width="24px" height="24px" viewBox="0 0 24 24" version="1.1" xmlns="http://www.w3.org/2000/svg" xmlns:xlink="http://www.w3.org/1999/xlink">
    <title>会员管理-线性</title>
    <g id="页面-1" stroke="none" stroke-width="1" fill="none" fill-rule="evenodd" opacity="0.65">
        <g id="弹窗" transform="translate(-269.000000, -843.000000)" fill="#000000" fill-rule="nonzero">
            <g id="Group-28" transform="translate(268.000000, 843.000000)">
                <g id="会员管理-线性" transform="translate(1.000000, 0.000000)">
                    <rect id="矩形" opacity="0" x="0" y="0" width="24" height="24"></rect>
                    <path d="M5.21548082,20.5616069 C4.76342841,20.5616069 4.39679824,20.19546 4.39619471,19.743408 C4.41460535,16.1962135 6.66896845,13.0465938 10.0207197,11.8852619 C8.39704714,11.1100215 7.36097363,9.47322096 7.35503175,7.67397809 C7.35683885,5.09464103 9.44639316,3.00361864 12.0257283,3 C14.6057741,3.00361344 16.6965831,5.09393319 16.7008002,7.67397809 C16.6960093,9.47464875 15.65984,11.1133013 14.0351123,11.8896372 C17.3863864,13.0490543 19.6410156,16.1972919 19.6596373,19.743408 C19.6590583,19.9611767 19.5719192,20.1697798 19.4174209,20.3232523 C19.2629225,20.4767248 19.0537435,20.5624722 18.8359758,20.5616069 L5.21548082,20.5616069 Z M6.09055276,18.9208404 L17.9674669,18.9208404 C17.6478249,15.8198776 15.1366118,13.4025113 12.0257283,13.2011513 C8.91551581,13.4050228 6.40688546,15.8244225 6.09055276,18.9252158 L6.09055276,18.9208404 Z M8.99797752,7.67069657 C9.00098038,9.34294541 10.3545794,10.6984998 12.0268221,10.7039147 C13.7017722,10.7033111 15.0594366,9.3456466 15.0600403,7.67069657 C15.0594366,5.99574655 13.7017722,4.63808208 12.0268221,4.6374784 C10.352049,4.63989325 8.99616572,5.99920417 8.99797752,7.67397809 L8.99797752,7.67069657 Z M20.8891134,19.1560167 C20.6710546,19.155437 20.4621733,19.0681827 20.3084957,18.9134792 C20.1548181,18.7587757 20.0689554,18.5493185 20.0698273,18.3312607 C20.0704308,17.8792087 20.437061,17.513068 20.8891134,17.5130684 L22.2892285,17.5130684 C21.9610765,15.4664939 20.4789234,13.2230281 18.5701727,12.8194012 C18.2153291,12.7451831 17.9519954,12.445758 17.9237133,12.0843408 C17.8919002,11.7211429 18.10488,11.380911 18.4454749,11.2508347 C19.3432984,10.9026422 19.9373924,10.0414228 19.9440357,9.07846858 C19.9404305,7.79502052 18.9008862,6.75547623 17.6174381,6.75187102 C17.4001617,6.75245295 17.1916007,6.66647273 17.0378599,6.51293719 C16.8841191,6.35940165 16.7978603,6.15095577 16.7981512,5.93367873 C16.7978603,5.7164017 16.8841191,5.50795583 17.0378599,5.35442029 C17.1916007,5.20088476 17.4001617,5.11490454 17.6174381,5.11548354 C19.8058099,5.11669276 21.5797038,6.8900972 21.5815141,9.07846858 C21.5772357,10.1060118 21.1772699,11.0924114 20.4647035,11.8327576 C22.6350283,13.2903705 23.9553008,15.7172699 23.9999971,18.3312607 C24.0005761,18.5499876 23.9140197,18.7599397 23.7594585,18.9147062 C23.6048973,19.0694726 23.3950603,19.1563076 23.1763327,19.1560167 L20.8891134,19.1560167 Z M0.819338087,19.1560168 C0.601008546,19.1563149 0.391615173,19.0693411 0.237747161,18.914446 C0.0838791497,18.7595508 -0.00169956158,18.5495834 2.55853834e-05,18.3312607 C0.0424557981,15.7177439 1.36131052,13.2904466 3.53096729,11.8327576 C2.81762894,11.0929127 2.41753194,10.1061897 2.41415673,9.07846858 C2.41596696,6.8900972 4.18986088,5.11669276 6.37823269,5.11548348 C6.8314951,5.11427577 7.20008513,5.48041832 7.20189417,5.93367873 C7.20008514,6.38693916 6.83149511,6.75308172 6.37823269,6.75187102 C5.09446494,6.75428058 4.05453481,7.79469984 4.05272895,9.07846858 C4.05858663,10.0413418 4.65240644,10.9027926 5.55019584,11.2508347 C5.89079079,11.380911 6.10377061,11.7211429 6.07195749,12.0843408 C6.04367539,12.445758 5.78034173,12.7451831 5.42549809,12.8194012 C3.51784121,13.2230281 2.03459425,15.4664939 1.70644227,17.5130684 L3.10655741,17.5130684 C3.55860981,17.513068 3.92523998,17.8792087 3.92584352,18.3312607 C3.92671537,18.5493185 3.84085273,18.7587757 3.68717513,18.9134792 C3.53349753,19.0681827 3.32461621,19.155437 3.10655741,19.1560168 L0.819338087,19.1560168 Z" id="形状"></path>
                </g>
            </g>
        </g>
    </g>
</svg>