<?xml version="1.0" encoding="UTF-8"?>
<svg width="24px" height="24px" viewBox="0 0 24 24" version="1.1" xmlns="http://www.w3.org/2000/svg" xmlns:xlink="http://www.w3.org/1999/xlink">
    <title>地图组织站点,层级,下级,组织架构布局</title>
    <g id="页面-1" stroke="none" stroke-width="1" fill="none" fill-rule="evenodd" opacity="0.65">
        <g id="弹窗" transform="translate(-333.000000, -843.000000)" fill="#000000" fill-rule="nonzero">
            <g id="地图组织站点,层级,下级,组织架构布局" transform="translate(333.000000, 843.000000)">
                <rect id="矩形" opacity="0" x="0" y="0" width="24" height="24"></rect>
                <path d="M20.9375,15.0605469 C20.7484375,15.0605469 20.59375,14.9058594 20.59375,14.7167969 L20.59375,13.0625 C20.59375,11.9238281 19.6699219,11 18.53125,11 L13.03125,11 C12.8421875,11 12.6875,10.8453125 12.6875,10.65625 L12.6875,8.59375 C12.6875,8.4046875 12.8421875,8.25 13.03125,8.25 L14.0625,8.25 C15.2011719,8.25 16.125,7.32617188 16.125,6.1875 L16.125,2.0625 C16.125,0.923828125 15.2011719,0 14.0625,0 L9.9375,0 C8.79882812,0 7.875,0.923828125 7.875,2.0625 L7.875,6.1875 C7.875,7.32617188 8.79882812,8.25 9.9375,8.25 L10.96875,8.25 C11.1578125,8.25 11.3125,8.4046875 11.3125,8.59375 L11.3125,10.65625 C11.3125,10.8453125 11.1578125,11 10.96875,11 L5.46875,11 C4.33007812,11 3.40625,11.9238281 3.40625,13.0625 L3.40625,14.7167969 C3.40625,14.9058594 3.2515625,15.0605469 3.0625,15.0605469 C1.92382812,15.0605469 1,15.984375 1,17.1230469 L1,19.9375 C1,21.0761719 1.92382812,22 3.0625,22 L5.125,22 C6.26367188,22 7.1875,21.0761719 7.1875,19.9375 L7.1875,17.1230469 C7.1875,15.984375 6.26367188,15.0605469 5.125,15.0605469 C4.9359375,15.0605469 4.78125,14.9058594 4.78125,14.7167969 L4.78125,13.0625 C4.78125,12.6822266 5.08847656,12.375 5.46875,12.375 L10.96875,12.375 C11.1578125,12.375 11.3125,12.5296875 11.3125,12.71875 L11.3125,14.7382812 C11.3125,14.9166016 11.1685547,15.0605469 10.9902344,15.0605469 L10.96875,15.0605469 C9.83007812,15.0605469 8.90625,15.984375 8.90625,17.1230469 L8.90625,19.9375 C8.90625,21.0761719 9.83007812,22 10.96875,22 L13.03125,22 C14.1699219,22 15.09375,21.0761719 15.09375,19.9375 L15.09375,17.1230469 C15.09375,15.984375 14.1699219,15.0605469 13.03125,15.0605469 L13.0097656,15.0605469 C12.8314453,15.0605469 12.6875,14.9166016 12.6875,14.7382812 L12.6875,12.71875 C12.6875,12.5296875 12.8421875,12.375 13.03125,12.375 L18.53125,12.375 C18.9115234,12.375 19.21875,12.6822266 19.21875,13.0625 L19.21875,14.7167969 C19.21875,14.9058594 19.0640625,15.0605469 18.875,15.0605469 C17.7363281,15.0605469 16.8125,15.984375 16.8125,17.1230469 L16.8125,19.9375 C16.8125,21.0761719 17.7363281,22 18.875,22 L20.9375,22 C22.0761719,22 23,21.0761719 23,19.9375 L23,17.1230469 C23,15.984375 22.0761719,15.0605469 20.9375,15.0605469 Z M5.125,16.4355469 C5.503125,16.4355469 5.8125,16.7449219 5.8125,17.1230469 L5.8125,19.9375 C5.8125,20.315625 5.503125,20.625 5.125,20.625 L3.0625,20.625 C2.684375,20.625 2.375,20.315625 2.375,19.9375 L2.375,17.1230469 C2.375,16.7449219 2.684375,16.4355469 3.0625,16.4355469 L5.125,16.4355469 Z M13.03125,16.4355469 C13.409375,16.4355469 13.71875,16.7449219 13.71875,17.1230469 L13.71875,19.9375 C13.71875,20.315625 13.409375,20.625 13.03125,20.625 L10.96875,20.625 C10.590625,20.625 10.28125,20.315625 10.28125,19.9375 L10.28125,17.1230469 C10.28125,16.7449219 10.590625,16.4355469 10.96875,16.4355469 L13.03125,16.4355469 Z M9.9375,6.875 C9.559375,6.875 9.25,6.565625 9.25,6.1875 L9.25,2.0625 C9.25,1.684375 9.559375,1.375 9.9375,1.375 L14.0625,1.375 C14.440625,1.375 14.75,1.684375 14.75,2.0625 L14.75,6.1875 C14.75,6.565625 14.440625,6.875 14.0625,6.875 L9.9375,6.875 Z M21.625,19.9375 C21.625,20.315625 21.315625,20.625 20.9375,20.625 L18.875,20.625 C18.496875,20.625 18.1875,20.315625 18.1875,19.9375 L18.1875,17.1230469 C18.1875,16.7449219 18.496875,16.4355469 18.875,16.4355469 L20.9375,16.4355469 C21.315625,16.4355469 21.625,16.7449219 21.625,17.1230469 L21.625,19.9375 Z" id="形状"></path>
            </g>
        </g>
    </g>
</svg>