<?xml version="1.0" encoding="UTF-8"?>
<svg width="14px" height="14px" viewBox="0 0 14 14" version="1.1" xmlns="http://www.w3.org/2000/svg" xmlns:xlink="http://www.w3.org/1999/xlink">
    <title>Group 9 Copy</title>
    <g id="问卷" stroke="none" stroke-width="1" fill="none" fill-rule="evenodd" opacity="0.65">
        <g id="问卷调查导航icon" transform="translate(-16.000000, -483.000000)">
            <g id="编组-14" transform="translate(0.000000, 470.000000)">
                <g id="Group-9-Copy" transform="translate(16.000000, 13.000000)">
                    <rect id="Rectangle-7" x="0" y="0" width="14" height="14"></rect>
                    <g id="wenjuan" transform="translate(1.000000, 1.000000)" fill="#231815" fill-rule="nonzero">
                        <path d="M10.8504356,9.10671929 L10.865719,9.12094455 C10.9514166,9.20005478 11,9.31030387 11,9.42566485 C11,9.54102583 10.9514166,9.65127492 10.865719,9.73038514 L8.5408112,11.8776524 C8.45286294,11.9590324 8.33559336,12.0029662 8.21466387,11.99984 C8.09368194,12.0030061 7.97634983,11.9590695 7.88836371,11.8776524 L6.55320764,10.644546 C6.46751004,10.5654358 6.4189266,10.4551867 6.4189266,10.3398257 C6.4189266,10.2244647 6.46751004,10.1142156 6.55320764,10.0351054 L6.56864385,10.0208802 C6.74526941,9.8577247 7.02108221,9.8577247 7.19770777,10.0208802 L8.21466387,10.9600475 L10.2213717,9.10671929 C10.3979972,8.94356383 10.67381,8.94356383 10.8504356,9.10671929 L10.8504356,9.10671929 Z M9.01719416,0 C9.94565949,0 10.6983659,0.737468014 10.6983659,1.6471367 L10.6983659,7.18750556 C10.6983659,7.43560242 10.4930879,7.63672466 10.2398645,7.63672466 C9.98664121,7.63672466 9.78136315,7.43560242 9.78136315,7.18750556 L9.78136315,1.6471367 C9.78136315,1.44856951 9.70085272,1.25813512 9.55754324,1.11772691 C9.41423375,0.977318704 9.21986438,0.898438195 9.01719416,0.898438195 L1.68117179,0.898438195 C1.47850157,0.898438195 1.28413219,0.977318704 1.14082271,1.11772691 C0.997513221,1.25813512 0.917002792,1.44856951 0.917002796,1.6471367 L0.917002796,10.3320392 C0.917002792,10.5306064 0.997513221,10.7210408 1.14082271,10.861449 C1.28413219,11.0018572 1.47850157,11.0807377 1.68117179,11.0807377 L5.04351538,11.0807377 C5.29673871,11.0807377 5.50201678,11.28186 5.50201678,11.5299568 C5.50201678,11.7780537 5.29673871,11.9791759 5.04351538,11.9791759 L1.68117179,11.9791759 C0.752706457,11.9791759 0,11.2417079 0,10.3320392 L0,1.6471367 C0,0.737468028 0.752706457,0 1.68117179,0 L9.01719416,0 Z M5.96051817,6.43880707 C6.2137415,6.43880707 6.41901957,6.63992931 6.41901957,6.88802617 C6.41901957,7.13612302 6.2137415,7.33724526 5.96051817,7.33724526 L2.90384218,7.33724526 C2.65061885,7.33724526 2.44534078,7.13612302 2.44534078,6.88802617 C2.44534078,6.63992931 2.65061885,6.43880707 2.90384218,6.43880707 L5.96051817,6.43880707 Z M7.79452377,4.04297188 C8.0477471,4.04297188 8.25302516,4.24409412 8.25302516,4.49219097 C8.25302516,4.74028783 8.0477471,4.94141007 7.79452377,4.94141007 L2.90384218,4.94141007 C2.65061885,4.94141007 2.44534078,4.74028783 2.44534078,4.49219097 C2.44534078,4.24409412 2.65061885,4.04297188 2.90384218,4.04297188 L7.79452377,4.04297188 Z" id="形状"></path>
                    </g>
                </g>
            </g>
        </g>
    </g>
</svg>