<?xml version="1.0" encoding="UTF-8"?>
<svg width="24px" height="24px" viewBox="0 0 24 24" version="1.1" xmlns="http://www.w3.org/2000/svg" xmlns:xlink="http://www.w3.org/1999/xlink">
    <title>205设置-线性</title>
    <g id="页面-1" stroke="none" stroke-width="1" fill="none" fill-rule="evenodd" opacity="0.65">
        <g id="弹窗" transform="translate(-586.000000, -840.000000)" fill="#000000" fill-rule="nonzero">
            <g id="205设置-线性" transform="translate(586.000000, 840.000000)">
                <rect id="矩形" opacity="0" x="0" y="0" width="24" height="24"></rect>
                <path d="M13.8,3 L14.08125,4.95 L14.19375,5.75625 L14.925,6.09375 C15.225,6.24375 15.54375,6.4125 15.825,6.6 L16.48125,7.03125 L17.2125,6.75 L19.125,6 L20.90625,8.98125 L19.33125,10.18125 L18.675,10.6875 L18.75,11.5125 C18.76875,11.68125 18.76875,11.85 18.76875,12 C18.76875,12.15 18.76875,12.31875 18.75,12.4875 L18.675,13.3125 L19.33125,13.81875 L20.90625,15.01875 L19.14375,18 L17.2125,17.25 L16.48125,16.96875 L15.825,17.4 C15.525,17.60625 15.225,17.775 14.925,17.90625 L14.19375,18.24375 L14.08125,19.03125 L13.8,21 L10.2,21 L9.91875,19.05 L9.80625,18.24375 L9.075,17.90625 C8.775,17.75625 8.45625,17.5875 8.175,17.4 L7.51875,16.96875 L6.7875,17.25 L4.875,18 L3.09375,15.01875 L4.66875,13.81875 L5.325,13.3125 L5.25,12.4875 C5.23125,12.31875 5.23125,12.15 5.23125,12 C5.23125,11.85 5.23125,11.68125 5.25,11.5125 L5.325,10.6875 L4.66875,10.18125 L3.09375,8.98125 L4.85625,6 L6.7875,6.75 L7.51875,7.03125 L8.175,6.6 C8.475,6.39375 8.775,6.225 9.075,6.09375 L9.80625,5.75625 L9.91875,4.96875 L10.2,3 L13.8,3 M14.00625,1.5 L9.99375,1.5 C9.35625,1.5 8.83125,1.95 8.7375,2.55 L8.4375,4.725 C8.0625,4.89375 7.70625,5.1 7.33125,5.34375 L5.2125,4.51875 C5.0625,4.4625 4.9125,4.44375 4.7625,4.44375 C4.3125,4.44375 3.88125,4.66875 3.675,5.0625 L1.66875,8.4375 C1.35,8.9625 1.48125,9.65625 1.96875,10.03125 L3.75,11.38125 C3.73125,11.60625 3.7125,11.8125 3.7125,12 C3.7125,12.1875 3.7125,12.39375 3.75,12.61875 L1.96875,13.96875 C1.48125,14.34375 1.35,15 1.66875,15.5625 L3.65625,18.91875 C3.88125,19.3125 4.3125,19.55625 4.7625,19.55625 C4.9125,19.55625 5.04375,19.5375 5.19375,19.48125 L7.3125,18.65625 C7.66875,18.9 8.04375,19.10625 8.41875,19.275 L8.7375,21.43125 C8.8125,22.03125 9.35625,22.5 9.99375,22.5 L14.00625,22.5 C14.64375,22.5 15.16875,22.05 15.2625,21.45 L15.58125,19.275 C15.95625,19.10625 16.3125,18.9 16.6875,18.65625 L18.80625,19.48125 C18.95625,19.5375 19.10625,19.55625 19.25625,19.55625 C19.70625,19.55625 20.1375,19.33125 20.34375,18.9375 L22.35,15.54375 C22.65,15 22.51875,14.34375 22.03125,13.96875 L20.25,12.61875 C20.26875,12.43125 20.2875,12.225 20.2875,12 C20.2875,11.775 20.26875,11.56875 20.25,11.38125 L22.03125,10.03125 C22.51875,9.65625 22.65,9 22.33125,8.4375 L20.34375,5.08125 C20.11875,4.6875 19.6875,4.44375 19.2375,4.44375 C19.0875,4.44375 18.95625,4.4625 18.80625,4.51875 L16.6875,5.34375 C16.33125,5.1 15.95625,4.89375 15.58125,4.725 L15.2625,2.56875 C15.16875,1.95 14.64375,1.5 14.00625,1.5 Z M12,9 C13.65,9 15,10.35 15,12 C15,13.65 13.65,15 12,15 C10.35,15 9,13.65 9,12 C9,10.35 10.35,9 12,9 M12,7.5 C9.525,7.5 7.5,9.525 7.5,12 C7.5,14.475 9.525,16.5 12,16.5 C14.475,16.5 16.5,14.475 16.5,12 C16.5,9.525 14.475,7.5 12,7.5 Z" id="形状"></path>
            </g>
        </g>
    </g>
</svg>