<?xml version="1.0" encoding="UTF-8"?>
<svg width="41px" height="41px" viewBox="0 0 41 41" version="1.1" xmlns="http://www.w3.org/2000/svg" xmlns:xlink="http://www.w3.org/1999/xlink">
    <title>编组</title>
    <defs>
        <polygon id="path-1" points="0 0 40.8431269 0 40.8431269 40.8957123 0 40.8957123"></polygon>
    </defs>
    <g id="页面-1" stroke="none" stroke-width="1" fill="none" fill-rule="evenodd">
        <g id="秘锋-登陆页" transform="translate(-966.000000, -189.000000)">
            <g id="编组-15备份" transform="translate(838.000000, 133.000000)">
                <g id="编组-3" transform="translate(128.000000, 56.000000)">
                    <g id="编组" transform="translate(0.000000, -0.000000)">
                        <g>
                            <mask id="mask-2" fill="white">
                                <use xlink:href="#path-1"></use>
                            </mask>
                            <g id="Clip-2"></g>
                            <path d="M7.16336772,0 L33.6793561,0 C33.9046725,0 34.142081,0.012511345 34.3794894,0.037534035 C37.7797916,0.362829005 40.4803635,3.06689389 40.8052383,6.4715941 C40.8302286,6.70971325 40.8431269,6.9474288 40.8431269,7.17263301 L40.8431269,33.7229179 C40.8431269,37.6910322 37.6427477,40.8959545 33.6793561,40.8959545 L7.16336772,40.8959545 C6.68855075,40.8959545 6.2258259,40.8455055 5.76310104,40.7579261 C2.9254852,40.194512 0.700133341,37.9666854 0.137447017,35.1249957 C0.0499807336,34.6616723 0,34.1987526 0,33.7229179 L0,7.17263301 C0,6.9474288 0.0124951834,6.70971325 0.0374855502,6.4715941 C0.362360319,3.07940524 3.06293221,0.37534035 6.46323438,0.037534035 C6.70104594,0.012511345 6.93845442,0 7.16336772,0" id="Fill-1" fill="#F93809" mask="url(#mask-2)"></path>
                        </g>
                        <path d="M0.937622439,27.5892915 L0.937622439,33.7230793 C0.937622439,37.1653136 3.72566062,39.9569579 7.16344833,39.9569579 L33.6794367,39.9569579 C37.1301227,39.9569579 39.9052626,37.1653136 39.9052626,33.7230793 L39.9052626,26.4624633 C28.6539546,32.5712284 12.5766842,32.8343702 0.937622439,27.5892915" id="Fill-3" fill="#FDFDFD"></path>
                        <path d="M15.5046282,5.33556397 L24.6555362,5.33556397 C25.8409663,5.33556397 27.1557821,4.25151647 27.2714633,3.0770644 L13.0172805,3.0770644 C13.14586,4.25151647 14.3316932,5.33556397 15.5046282,5.33556397 L15.5046282,5.33556397 Z M24.8357087,17.1951083 L24.8357087,17.1951083 L24.8357087,14.1625197 L24.9259964,14.1625197 L26.9107153,14.1625197 C28.3158188,14.1625197 29.2690804,15.0399282 29.4109611,16.4468491 L29.4109611,16.5110202 L29.4109611,19.8406523 L27.7358004,19.8406523 C26.1247279,19.8406523 25.003386,18.7824347 24.8357087,17.1951083 L24.8357087,17.1951083 Z M17.901688,11.9944247 L17.901688,11.9944247 L17.901688,11.8911052 L17.901688,9.27139096 L22.4257506,9.27139096 L22.4257506,11.9944247 L17.901688,11.9944247 Z M11.1224464,19.8019075 L11.1224464,19.8019075 L11.1224464,16.5110202 C11.1224464,15.1045029 12.1539037,14.1625197 13.6488919,14.1625197 L15.5433229,14.1625197 L15.5433229,17.0792774 L15.5433229,17.1051073 C15.3498491,18.6920301 14.216012,19.8019075 12.6049395,19.8019075 L11.1224464,19.8019075 Z M16.4324963,27.3644102 L16.4324963,27.3644102 L24.1013143,27.3644102 C25.5576078,27.3644102 25.5576078,25.1446554 24.1013143,25.1446554 L22.8251934,25.1446554 L22.7993968,25.0929957 C22.5547331,21.8154269 17.592533,21.8279382 17.6570243,25.1446554 L16.4324963,25.1446554 C14.9762028,25.1446554 14.9762028,27.3644102 16.4324963,27.3644102 L16.4324963,27.3644102 Z M24.3846729,23.260689 C25.1964567,23.3377751 25.9183559,23.5185842 26.4467812,24.0864378 C26.9752065,24.6542914 27.2972598,25.4154655 27.2972598,26.2545328 C27.2972598,27.1319413 26.9365118,27.9451788 26.3564934,28.5255437 C25.7764751,29.1063123 24.9775895,29.4675269 24.1013143,29.4675269 L16.4324963,29.4675269 C15.5562212,29.4675269 14.7573356,29.1063123 14.1773172,28.5255437 C13.5972989,27.9451788 13.2365508,27.1319413 13.2365508,26.2545328 C13.2365508,25.4412954 13.5457059,24.6801213 14.0612329,24.1122677 C14.57676,23.5444141 15.2724596,23.3636049 16.0717483,23.2732004 C16.8061426,21.6346178 18.4434147,20.5634852 20.2346597,20.5634852 C22.0263078,20.5634852 23.6498755,21.6346178 24.3846729,23.260689 L24.3846729,23.260689 Z M31.6278485,28.4872025 L31.6278485,16.5368501 C31.6278485,13.6979855 29.7463157,11.9944247 26.94941,11.9944247 L24.8357087,11.9944247 L24.8357087,9.27139096 L30.4940114,9.27139096 C30.8676577,9.27139096 31.2026092,9.20681627 31.4859677,9.0780705 C31.7955258,8.94892113 32.0401896,8.74228214 32.2594599,8.49730193 C32.4916285,8.22649185 32.6718009,7.8907035 32.8136817,7.52948886 C32.9168678,7.25827519 32.9942573,6.97455017 33.0458503,6.66459169 C33.084142,6.48418616 32.878173,6.41961148 32.7491905,6.51001604 C32.6975975,6.54835725 32.6460044,6.57418713 32.5944114,6.61333553 C32.4009376,6.72916637 32.1820704,6.8454008 31.9632031,6.92289042 C31.7439328,7.00038004 31.5246625,7.07746607 31.292897,7.11661447 C31.0478302,7.15495569 30.8160647,7.18078557 30.5838961,7.18078557 L10.4912381,7.18078557 C10.2461713,7.18078557 10.0015076,7.15495569 9.75644073,7.11661447 C9.52467523,7.06495473 9.29250666,7.00038004 9.07323635,6.90997548 C8.84147085,6.81957093 8.63509879,6.71625143 8.4291298,6.58750566 C8.32594377,6.52252738 8.23565599,6.45835629 8.14536821,6.38086667 C8.04218218,6.30337705 7.91360272,6.35503679 7.93899615,6.51001604 C8.00389049,6.83248586 8.0937752,7.14244435 8.20985948,7.4390843 C8.36463853,7.81321388 8.58350577,8.16151358 8.8285726,8.44564219 C9.07323635,8.70353733 9.36989619,8.92309125 9.69194946,9.06515556 C10.0015076,9.20681627 10.3622556,9.27139096 10.7488001,9.27139096 L15.5433229,9.27139096 L15.5433229,11.9944247 L13.5844006,11.9944247 C10.7874949,11.9944247 8.90596212,13.6979855 8.90596212,16.5368501 L8.90596212,28.4097129 C8.81567434,29.7387406 8.10667345,31.1840027 7.08851754,32.0876447 C7.06272103,32.1134746 7.03692453,32.1518158 7.03692453,32.1909642 C7.03692453,32.2680502 7.1014158,32.3326249 7.19170357,32.3326249 C8.18406298,32.2938801 9.33120143,31.8680908 9.98820623,31.2098326 C10.6714106,30.5390631 11.0966499,29.6099948 11.1099512,28.5772035 L11.1224464,28.5772035 L11.1224464,21.8537681 L12.9140945,21.8408532 C15.6976989,21.8408532 17.901688,19.7760777 17.901688,16.9501281 L17.901688,14.1625197 L22.4257506,14.1625197 L22.4257506,16.9501281 C22.4257506,19.7889926 24.6297397,21.8408532 27.4262423,21.8408532 L29.4109611,21.8408532 L29.4109611,28.4872025 C29.4109611,29.5066753 29.7975057,30.4486585 30.5452013,31.1973213 C31.2026092,31.8680908 32.3368494,32.2809652 33.3421071,32.31971 C33.4194966,32.3326249 33.4968861,32.2551353 33.4968861,32.1776457 C33.4968861,32.1393045 33.4710896,32.1005597 33.4452931,32.0747298 C32.4400354,31.1840027 31.7439328,29.7904003 31.6278485,28.4872025 L31.6278485,28.4872025 Z" id="Fill-5" fill="#FDFDFD"></path>
                        <path d="M29.9289873,38.1918492 L28.7415418,38.1918492 L27.7036354,36.3764934 L27.7036354,38.1918492 L26.6786273,38.1918492 L26.6786273,33.0847989 L27.7036354,33.0847989 L27.7036354,36.1763119 L28.7286435,34.5744562 L29.7790451,34.5744562 L28.6536724,36.2013346 L29.9289873,38.1918492 Z M25.8910277,38.1918492 L24.8535244,38.1918492 L24.8535244,35.6633468 C24.8535244,35.3251369 24.6656936,35.1624894 24.3158284,35.1624894 C24.152988,35.1624894 24.015944,35.1875121 23.8780939,35.2375574 L23.8780939,38.1918492 L22.8405906,38.1918492 L22.8405906,34.7746377 C23.2404365,34.5994789 23.7406469,34.4989845 24.3408188,34.4989845 C25.3783221,34.4989845 25.8910277,34.8872398 25.8910277,35.6508354 L25.8910277,38.1918492 Z M21.0154877,38.1918492 L22.052991,38.1918492 L22.052991,34.5744562 L21.0154877,34.5744562 L21.0154877,38.1918492 Z M22.0904766,33.5352073 C22.0904766,33.6853435 22.0404958,33.8229683 21.9280392,33.935974 C21.8155825,34.0485761 21.6906307,34.0986215 21.5277902,34.0986215 C21.377848,34.0986215 21.2528962,34.0485761 21.1404396,33.935974 C21.0279829,33.8229683 20.965507,33.6853435 20.965507,33.5352073 C20.965507,33.3725599 21.0279829,33.2474464 21.1404396,33.1348443 C21.2528962,33.0218386 21.377848,32.9592819 21.5277902,32.9592819 C21.6906307,32.9592819 21.8155825,33.0218386 21.9280392,33.1348443 C22.0404958,33.2474464 22.0904766,33.3725599 22.0904766,33.5352073 L22.0904766,33.5352073 Z M19.1653944,38.1918492 L20.2028977,38.1918492 L20.2028977,33.0847989 L19.1653944,33.0847989 L19.1653944,38.1918492 Z M17.4898307,36.3894084 C17.4898307,35.5882787 17.3024029,35.1875121 16.9396395,35.1875121 C16.564784,35.1875121 16.3769532,35.5882787 16.3769532,36.3894084 C16.3769532,37.1780267 16.564784,37.5783897 16.9396395,37.5783897 C17.3024029,37.5783897 17.4898307,37.1780267 17.4898307,36.3894084 L17.4898307,36.3894084 Z M18.5148388,36.3894084 C18.5148388,36.9399076 18.3773917,37.3907196 18.1149929,37.7289295 C17.8396958,38.0917585 17.4398499,38.2669173 16.9396395,38.2669173 C16.4269339,38.2669173 16.0395832,38.0917585 15.752194,37.7289295 C15.4893921,37.3907196 15.3519451,36.9399076 15.3519451,36.3894084 C15.3519451,35.8259943 15.4893921,35.3751822 15.752194,35.0373759 C16.0395832,34.6866547 16.4269339,34.4989845 16.9271443,34.4989845 C17.4273547,34.4989845 17.8276037,34.6866547 18.1149929,35.0373759 C18.3773917,35.3751822 18.5148388,35.8259943 18.5148388,36.3894084 L18.5148388,36.3894084 Z M14.8271474,36.6521466 C14.8271474,37.1279813 14.6772052,37.5033217 14.3769177,37.8039975 C14.0645381,38.1167812 13.6392988,38.2669173 13.1016029,38.2669173 C12.6017955,38.2669173 12.164061,38.1793379 11.7892055,38.0041791 L11.7892055,37.0399983 C12.2015466,37.3031401 12.5768052,37.4282536 12.9391655,37.4282536 C13.2015643,37.4282536 13.4018903,37.3656969 13.5393374,37.2280721 C13.6642892,37.11547 13.7267651,36.9524189 13.7267651,36.7647487 C13.7267651,36.6021012 13.6392988,36.4644764 13.4893566,36.339363 C13.3519096,36.2392722 13.1390884,36.1141588 12.8267088,36.0011531 C12.1140803,35.7133921 11.7642152,35.2375574 11.7642152,34.5865639 C11.7642152,34.1486668 11.9016622,33.7858378 12.1890514,33.485162 C12.4889358,33.1719747 12.8891847,33.0218386 13.4018903,33.0218386 C13.7767458,33.0218386 14.1520044,33.0969067 14.5143647,33.2599578 L14.5143647,34.0861101 C14.18949,33.8980363 13.8767073,33.7979456 13.5768229,33.7979456 C13.1016029,33.7979456 12.8641944,33.9985307 12.8641944,34.3988937 C12.8641944,34.5744562 12.9391655,34.7367001 13.0891077,34.8622171 C13.1894722,34.9497965 13.3769,35.0498873 13.651794,35.1624894 C14.1020237,35.3626709 14.4268984,35.5882787 14.6143262,35.8510169 C14.7521763,36.0641134 14.8271474,36.339363 14.8271474,36.6521466 L14.8271474,36.6521466 Z" id="Fill-7" fill="#F93809"></path>
                    </g>
                </g>
            </g>
        </g>
    </g>
</svg>