<?xml version="1.0" encoding="UTF-8"?>
<svg width="37px" height="41px" viewBox="0 0 37 41" version="1.1" xmlns="http://www.w3.org/2000/svg" xmlns:xlink="http://www.w3.org/1999/xlink">
    <title>编组 10</title>
    <g id="页面-1" stroke="none" stroke-width="1" fill="none" fill-rule="evenodd">
        <g id="秘锋-登陆页" transform="translate(-1019.000000, -189.000000)">
            <g id="编组-15备份" transform="translate(838.000000, 133.000000)">
                <g id="编组-3" transform="translate(128.000000, 56.000000)">
                    <g id="编组-2" transform="translate(0.000000, -0.000000)">
                        <g id="编组-10" transform="translate(53.256234, -0.000000)">
                            <path d="M16.3988673,1.34757639 L16.3988673,1.34757639 L2.79136693,9.21655735 C1.57009497,9.91532555 0.822377441,11.2295153 0.822377441,12.6268917 L0.822377441,28.3648536 C0.822377441,29.7705487 1.57840294,31.0848984 2.79136693,31.7835066 L16.3988673,39.6526476 C17.6116715,40.3512558 19.1237225,40.3512558 20.3365267,39.6526476 L33.9524948,31.7835066 C35.1652991,31.0848984 35.9213246,29.7705487 35.9213246,28.3648536 L35.9213246,12.6268917 C35.9213246,11.2295153 35.1652991,9.91532555 33.9524948,9.21655735 L20.3365267,1.34757639 C19.1237225,0.648808191 17.6116715,0.648808191 16.3988673,1.34757639" id="Fill-1" fill="#F4C820"></path>
                            <path d="M22.6044914,16.8192449 L22.6044914,16.5364102 C22.6044914,15.962582 22.4881798,15.4052312 22.2804805,14.906111 C22.0646329,14.3820349 21.7404623,13.9078707 21.3499875,13.5168933 C20.9513646,13.1260758 20.4861182,12.8016477 19.9627159,12.5853623 C19.4559296,12.3773956 18.9077632,12.2609343 18.3345131,12.2609343 C17.761263,12.2609343 17.2129368,12.3773956 16.7063102,12.5853623 C16.1829079,12.8016477 15.7176615,13.1260758 15.3188788,13.5168933 C14.9284041,13.9078707 14.6043932,14.3820349 14.3883859,14.906111 C14.1806866,15.4052312 14.064375,15.962582 14.064375,16.5364102 L14.064375,16.8192449 L22.6044914,16.8192449 Z M12.170317,27.8158855 C11.6636904,28.1902256 11.1652121,28.4980163 10.6750417,28.7392577 C9.2543784,29.4545033 8.00003432,29.612558 7.25231679,29.0387298 C6.50459927,28.4730603 6.32198364,27.22526 6.62937862,25.6613502 C6.9700055,23.9147496 7.92526257,21.8434011 9.42053785,19.8803551 C10.2596431,18.7658135 11.181828,17.8090066 12.1123209,17.043849 L12.1123209,26.9675412 C12.1123209,27.2585346 12.1289369,27.5413694 12.170317,27.8158855 L12.170317,27.8158855 Z M24.4819334,27.9240282 C24.9388719,28.2482963 25.3958104,28.5228124 25.8361329,28.7392577 C27.2566365,29.4545033 28.5028323,29.612558 29.2503901,29.0387298 C29.9981076,28.4730603 30.189191,27.22526 29.881796,25.6613502 C29.5411691,23.9147496 28.5776041,21.8434011 27.090477,19.8803551 C26.2929117,18.8238842 25.4290423,17.9173092 24.5567052,17.1769477 L24.5567052,26.9675412 C24.5567052,27.2918093 24.5317812,27.6079187 24.4819334,27.9240282 L24.4819334,27.9240282 Z" id="Fill-3" fill="#FFFFFF"></path>
                            <path d="M22.4050841,10.8551912 L23.5100444,7.6443449 L23.5266604,7.6443449 C24.016671,7.6443449 24.4154537,7.24520877 24.4154537,6.74592865 C24.4154537,6.25528715 24.016671,5.85599104 23.5266604,5.85599104 C23.028182,5.85599104 22.6293993,6.25528715 22.6293993,6.74592865 C22.6293993,7.02044473 22.7540189,7.2618461 22.9451023,7.42805951 C21.7404463,8.61762918 20.0540876,9.09179331 19.1985262,7.28664214 C18.9326711,6.72929131 18.7166638,6.11386978 18.6418921,5.88926572 C18.9740512,5.75616701 19.2151422,5.43173892 19.2151422,5.04908015 C19.2151422,4.55843865 18.8246675,4.16746121 18.3344971,4.15914254 C17.8443267,4.16746121 17.453852,4.55843865 17.453852,5.04908015 C17.453852,5.43173892 17.6947832,5.75616701 18.0271021,5.88926572 C17.9523303,6.11386978 17.7363231,6.72929131 17.4704679,7.28664214 C16.6149065,9.09179331 14.9283881,8.61762918 13.7238919,7.42805951 C13.9149752,7.2618461 14.0395948,7.02044473 14.0395948,6.74592865 C14.0395948,6.25528715 13.6408121,5.85599104 13.1423338,5.85599104 C12.6521634,5.85599104 12.2533807,6.25528715 12.2533807,6.74592865 C12.2533807,7.24520877 12.6521634,7.6443449 13.1423338,7.6443449 L13.1589497,7.6443449 L14.2637503,10.8551912 C15.3853266,9.95677492 16.7975222,9.41606143 18.3344971,9.41606143 C19.8713122,9.41606143 21.2835078,9.95677492 22.4050841,10.8551912" id="Fill-7" fill="#231815"></path>
                            <path d="M14.1641345,21.1696369 L22.6045553,21.1696369 L22.6045553,18.7407455 L14.0644389,18.7407455 L14.0644389,21.1696369 L14.1641345,21.1696369 Z M22.4799357,27.3084946 L14.0727468,27.3084946 L14.0893628,27.424956 C14.1392106,27.9157575 14.2804461,28.381443 14.4798375,28.8056951 C14.6958448,29.2465845 14.9783158,29.6457207 15.3189427,29.9869461 C15.7092576,30.3779235 16.1828121,30.7023516 16.7062144,30.918477 C17.2130007,31.1264438 17.7613269,31.2429051 18.334577,31.2429051 C18.9076673,31.2429051 19.4559935,31.1264438 19.9627798,30.918477 C20.4860223,30.7023516 20.9512688,30.3779235 21.3500515,29.9869461 C21.6906783,29.6457207 21.9731494,29.2465845 22.1808487,28.8056951 C22.388548,28.381443 22.5297835,27.9157575 22.5796314,27.424956 L22.5879394,27.3084946 L22.4799357,27.3084946 Z M14.1641345,25.3619261 L22.6045553,25.3619261 L22.6045553,23.1160454 L14.0644389,23.1160454 L14.0644389,25.3619261 L14.1641345,25.3619261 Z" id="Fill-9" fill="#F4C820"></path>
                            <path d="M14.1641345,16.7944009 L22.6045553,16.7944009 L22.6045553,16.5365222 C22.6045553,15.962534 22.4882437,15.4051832 22.2805444,14.906063 C22.0645371,14.3819869 21.7405262,13.9079827 21.3500515,13.5170053 C20.9512688,13.1260278 20.4860223,12.8015997 19.9627798,12.5853143 C19.4559935,12.3773476 18.9076673,12.2610462 18.334577,12.2610462 C17.7613269,12.2610462 17.2130007,12.3773476 16.7062144,12.5853143 C16.1828121,12.8015997 15.7177254,13.1260278 15.3189427,13.5170053 C14.928468,13.9079827 14.6044571,14.3819869 14.3884498,14.906063 C14.1807505,15.4051832 14.0644389,15.962534 14.0644389,16.5365222 L14.0644389,16.7944009 L14.1641345,16.7944009 Z M14.1641345,21.1697008 L22.6045553,21.1697008 L22.6045553,18.7408095 L14.0644389,18.7408095 L14.0644389,21.1697008 L14.1641345,21.1697008 Z M22.4799357,27.3085586 L14.0727468,27.3085586 L14.0893628,27.42486 C14.1392106,27.9158215 14.2804461,28.381507 14.4798375,28.8057591 C14.6958448,29.2466485 14.9783158,29.6457847 15.3189427,29.9870101 C15.7092576,30.3778275 16.1828121,30.7022556 16.7062144,30.918541 C17.2130007,31.1265078 17.7613269,31.2428092 18.334577,31.2428092 C18.9076673,31.2428092 19.4559935,31.1265078 19.9627798,30.918541 C20.4860223,30.7022556 20.9512688,30.3778275 21.3500515,29.9870101 C21.6906783,29.6457847 21.9731494,29.2466485 22.1808487,28.8057591 C22.388548,28.381507 22.5297835,27.9158215 22.5796314,27.42486 L22.5879394,27.3085586 L22.4799357,27.3085586 Z M14.1641345,25.3619901 L22.6045553,25.3619901 L22.6045553,23.1161094 L14.0644389,23.1161094 L14.0644389,25.3619901 L14.1641345,25.3619901 Z M24.5567691,17.1770597 L24.5567691,26.9674932 C24.5567691,27.2917613 24.5318452,27.6080307 24.4819973,27.9239802 C24.9389358,28.2484083 25.3957145,28.5227644 25.8360371,28.7392097 C27.2567004,29.4546153 28.5028963,29.61251 29.250454,29.0386818 C29.9981715,28.4730123 30.1892549,27.225212 29.8818599,25.6614622 C29.541233,23.9147016 28.5775082,21.843513 27.0905409,19.8803072 C26.2929756,18.8239962 25.4291062,17.9174212 24.5567691,17.1770597 L24.5567691,17.1770597 Z M12.1703809,27.8159974 C12.128841,27.5414814 12.1122251,27.2584866 12.1122251,26.9674932 L12.1122251,17.043961 C11.1817322,17.8091185 10.259707,18.7657655 9.42060176,19.8803072 C7.92532648,21.843513 6.96990964,23.9147016 6.62928276,25.6614622 C6.32204755,27.225212 6.50466318,28.4730123 7.2523807,29.0386818 C7.99993846,29.61251 9.25444231,29.4546153 10.6751056,28.7392097 C11.1651162,28.4979683 11.6635946,28.1901776 12.1703809,27.8159974 L12.1703809,27.8159974 Z M23.3354971,12.8431931 C23.6345841,13.2508079 23.8921313,13.6916973 24.0832146,14.1575428 C24.1995263,14.4318989 24.290914,14.7147336 24.3656857,15.0058871 C25.7446494,15.9458967 27.1403888,17.2768837 28.3699687,18.8987042 C30.0230955,21.0781955 31.0780482,23.3823068 31.4685229,25.3536714 C31.8922295,27.5163654 31.5100628,29.3464726 30.2224868,30.3195969 C28.943059,31.2928811 27.082233,31.1762598 25.1134032,30.1864982 C24.7478524,29.9953287 24.3739937,29.787362 24.0001349,29.537642 C23.684432,30.2282515 23.2524174,30.843673 22.7291749,31.3677492 C22.1559248,31.9417373 21.4663631,32.4075828 20.7104973,32.7235322 C19.9793958,33.031323 19.1735224,33.1976964 18.334577,33.1976964 C17.4954717,33.1976964 16.6895984,33.031323 15.9584968,32.7235322 C15.2026311,32.4075828 14.5130694,31.9417373 13.9398193,31.3677492 C13.3916529,30.818717 12.9428626,30.1781795 12.6273194,29.4546153 C12.2119208,29.73729 11.7965221,29.9785314 11.3894315,30.1864982 C9.42060176,31.1762598 7.55977568,31.2928811 6.28034792,30.3195969 C5.00107992,29.3464726 4.61891318,27.5163654 5.04261978,25.3536714 C5.42478652,23.3823068 6.48804723,21.0781955 8.13286602,18.8987042 C9.42890973,17.2020157 10.8992611,15.8211166 12.3365403,14.8727884 C12.4030041,14.631547 12.4860839,14.3904655 12.5857795,14.1575428 C12.7768629,13.6916973 13.0259423,13.2508079 13.3251891,12.8431931 L13.341805,12.8431931 C14.4798375,11.3210366 16.2991237,10.331115 18.334577,10.331115 C20.3698705,10.331115 22.1891567,11.3210366 23.3273489,12.8431931 L23.3354971,12.8431931 Z" id="Fill-11" fill="#231815"></path>
                            <path d="M2.38422834,8.50119981 L15.9917287,0.632218845 C16.7311383,0.207966725 17.5536275,-3.1337222e-14 18.3678089,-3.1337222e-14 C19.1901384,-3.1337222e-14 20.0126276,0.207966725 20.7437292,0.632218845 L34.3595376,8.50119981 C35.0904794,8.92545193 35.6888132,9.53255479 36.104052,10.2479603 C36.5111427,10.9633659 36.7437659,11.7869141 36.7437659,12.6269397 L36.7437659,28.3649016 C36.7437659,29.2134059 36.5111427,30.0367941 36.104052,30.7521996 C35.6888132,31.4592865 35.0904794,32.0665494 34.3595376,32.4989602 L20.7518774,40.3594625 C20.0126276,40.7838746 19.1901384,41 18.3678089,41 C17.5536275,41 16.7311383,40.7838746 15.9917287,40.3594625 L2.38422834,32.4989602 C1.64481879,32.0665494 1.04664477,31.4592865 0.639713884,30.7521996 C0.224315258,30.0367941 1.22342534e-13,29.2134059 1.22342534e-13,28.3649016 L1.22342534e-13,12.6269397 C1.22342534e-13,11.7869141 0.224315258,10.9633659 0.639713884,10.2479603 C1.05511251,9.53255479 1.64481879,8.92545193 2.37592037,8.50119981 L2.38422834,8.50119981 Z M16.80591,2.05455127 L3.19840965,9.92353223 C2.71654724,10.206367 2.32607254,10.6056631 2.06021742,11.0631899 C1.78605432,11.5290354 1.64481879,12.0695889 1.64481879,12.6269397 L1.64481879,28.3649016 C1.64481879,28.9220925 1.78605432,29.462806 2.06021742,29.9286514 C2.32607254,30.3943369 2.71654724,30.793793 3.19840965,31.0766277 L16.80591,38.93729 C17.2877724,39.2199648 17.8277906,39.3530635 18.3678089,39.3530635 C18.9159753,39.3530635 19.4476855,39.2199648 19.9295479,38.93729 L33.545516,31.0766277 C34.0189107,30.793793 34.4093854,30.3943369 34.6835485,29.9286514 C34.9494036,29.462806 35.0989471,28.9220925 35.0989471,28.3649016 L35.0989471,12.6269397 C35.0989471,12.0695889 34.9494036,11.5290354 34.6835485,11.0631899 C34.4093854,10.6056631 34.0189107,10.206367 33.5370483,9.92353223 L19.9295479,2.05455127 C19.4559935,1.78003519 18.9159753,1.64693649 18.3678089,1.64693649 C17.8277906,1.64693649 17.2877724,1.78003519 16.80591,2.05455127 L16.80591,2.05455127 Z" id="Fill-15" fill="#231815"></path>
                        </g>
                    </g>
                </g>
            </g>
        </g>
    </g>
</svg>